<svg id="Layer_1" data-name="Layer 1" xmlns="http://www.w3.org/2000/svg" viewBox="0 0 250.69 56"><defs><style>.cls-1,.cls-2{fill:#231f20;}.cls-1{fill-rule:evenodd;}.cls-3{fill:#fff;}.cls-4{fill:none;stroke:#231f20;stroke-miterlimit:3.86;stroke-width:1.28px;}</style></defs><title>ARC_inline_266</title><path class="cls-1" d="M91.25,26.89H87.59l-.44,1a2.24,2.24,0,0,0-.21.83.69.69,0,0,0,.35.64,3,3,0,0,0,1,.18v.28H84.87v-.28a1.55,1.55,0,0,0,.92-.46,6.24,6.24,0,0,0,.89-1.57l3.7-8.26h.15l3.74,8.49a5.17,5.17,0,0,0,.88,1.52,1.2,1.2,0,0,0,.73.27v.28h-5v-.28h.21a1.57,1.57,0,0,0,.85-.17.41.41,0,0,0,.17-.35.94.94,0,0,0,0-.28s-.09-.24-.23-.57l-.55-1.29ZM91,26.32l-1.54-3.57-1.59,3.57Z" transform="translate(-1.43 -2)"/><path class="cls-2" d="M102.22,22.69v5.59a2.08,2.08,0,0,0,.15,1,.89.89,0,0,0,.62.25v.27h-2.91v-1a3.74,3.74,0,0,1-1,.89,2.38,2.38,0,0,1-1.15.27,1.71,1.71,0,0,1-1.08-.37,1.84,1.84,0,0,1-.63-.87A6.39,6.39,0,0,1,96,27.08V24.24a2,2,0,0,0-.15-1,.89.89,0,0,0-.62-.26v-.28h2.91v4.88a4.26,4.26,0,0,0,.07,1,.68.68,0,0,0,.23.34.61.61,0,0,0,.37.11.88.88,0,0,0,.5-.15,3.15,3.15,0,0,0,.73-.8V24.24a2,2,0,0,0-.15-1,.89.89,0,0,0-.62-.26v-.28Z" transform="translate(-1.43 -2)"/><path class="cls-2" d="M108,22.49l.11,2.44h-.26a3.8,3.8,0,0,0-1-1.48,1.59,1.59,0,0,0-1-.4.74.74,0,0,0-.53.21.64.64,0,0,0-.22.48.63.63,0,0,0,.15.4,7.37,7.37,0,0,0,1.37,1.08,5.48,5.48,0,0,1,1.47,1.29,2.06,2.06,0,0,1,.36,1.18,2.51,2.51,0,0,1-.3,1.17,2.09,2.09,0,0,1-.84.88,2.4,2.4,0,0,1-1.2.31,4.16,4.16,0,0,1-1.37-.32,1.15,1.15,0,0,0-.31-.08q-.25,0-.42.38h-.25l-.12-2.57h.26a3.34,3.34,0,0,0,.94,1.51,1.82,1.82,0,0,0,1.14.5.82.82,0,0,0,.6-.22.74.74,0,0,0,.24-.55.94.94,0,0,0-.23-.63,6,6,0,0,0-1-.81A8,8,0,0,1,104.07,26a2.15,2.15,0,0,1-.5-1.38,2.24,2.24,0,0,1,.57-1.49,2,2,0,0,1,1.65-.67,2.4,2.4,0,0,1,1.12.28.75.75,0,0,0,.34.11.41.41,0,0,0,.22-.05,1.58,1.58,0,0,0,.27-.33Z" transform="translate(-1.43 -2)"/><path class="cls-2" d="M111.77,20.08v2.61h1.7v.76h-1.7v4.41a3.64,3.64,0,0,0,.05.8.62.62,0,0,0,.21.29.46.46,0,0,0,.27.11q.5,0,.94-.76l.23.17a2.09,2.09,0,0,1-2,1.47,1.8,1.8,0,0,1-1.15-.37,1.69,1.69,0,0,1-.6-.85,7.18,7.18,0,0,1-.08-1.41V23.45h-.93v-.27a9.72,9.72,0,0,0,1.63-1.43,8.62,8.62,0,0,0,1.18-1.67Z" transform="translate(-1.43 -2)"/><path class="cls-2" d="M116.95,22.69v1.62a5.16,5.16,0,0,1,1.25-1.47,1.83,1.83,0,0,1,1-.37.89.89,0,0,1,.68.27,1,1,0,0,1,.26.74,1.15,1.15,0,0,1-.25.79.76.76,0,0,1-.6.28,1,1,0,0,1-.7-.26l-.35-.29a.34.34,0,0,0-.18,0,.64.64,0,0,0-.42.17,1.59,1.59,0,0,0-.47.74,5.19,5.19,0,0,0-.24,1.63v2.07a1.75,1.75,0,0,0,.05.56.63.63,0,0,0,.27.31,1.67,1.67,0,0,0,.61.11v.27H114v-.27a.84.84,0,0,0,.63-.25,2.36,2.36,0,0,0,.17-1.15V24.2a3,3,0,0,0-.06-.78.62.62,0,0,0-.22-.31A1.18,1.18,0,0,0,114,23v-.28Z" transform="translate(-1.43 -2)"/><path class="cls-1" d="M124.09,28.78a3.77,3.77,0,0,1-2.34,1.15,1.39,1.39,0,0,1-1-.4,1.37,1.37,0,0,1-.4-1,2,2,0,0,1,.7-1.47,13.18,13.18,0,0,1,3.06-1.74V24.6a3.3,3.3,0,0,0-.09-1,.77.77,0,0,0-.33-.37,1,1,0,0,0-.55-.16,1.41,1.41,0,0,0-.82.22.39.39,0,0,0-.2.32.66.66,0,0,0,.21.4,1,1,0,0,1,.29.63.85.85,0,0,1-.28.64,1,1,0,0,1-.73.26,1.18,1.18,0,0,1-.81-.29.89.89,0,0,1-.32-.68,1.57,1.57,0,0,1,.44-1,2.74,2.74,0,0,1,1.21-.77,5,5,0,0,1,1.62-.27,2.64,2.64,0,0,1,1.6.44,2,2,0,0,1,.77.93,6.09,6.09,0,0,1,.11,1.47v2.77a2.93,2.93,0,0,0,0,.62.36.36,0,0,0,.11.18.27.27,0,0,0,.18.06q.2,0,.4-.28l.23.18a2.81,2.81,0,0,1-.79.82,1.71,1.71,0,0,1-.92.25,1.46,1.46,0,0,1-1-.28,1.31,1.31,0,0,1-.42-.87Zm0-.56V25.83A4.46,4.46,0,0,0,122.71,27a1.41,1.41,0,0,0-.3.83.87.87,0,0,0,.25.62.69.69,0,0,0,.53.21,1.47,1.47,0,0,0,.89-.43Z" transform="translate(-1.43 -2)"/><path class="cls-2" d="M130.29,19.48v8.88a1.72,1.72,0,0,0,.18,1,1,1,0,0,0,.69.24v.27H127.3v-.27a.93.93,0,0,0,.7-.28,1.71,1.71,0,0,0,.15-.93V21a1.66,1.66,0,0,0-.18-1,.93.93,0,0,0-.68-.24v-.28Z" transform="translate(-1.43 -2)"/><path class="cls-1" d="M133.56,19.23a1.19,1.19,0,1,1-.83.35,1.13,1.13,0,0,1,.83-.35Zm1.07,3.46v5.66a1.72,1.72,0,0,0,.18,1,1,1,0,0,0,.69.24v.27h-3.86v-.27a.93.93,0,0,0,.7-.28,1.71,1.71,0,0,0,.15-.93V24.18a1.68,1.68,0,0,0-.18-1,.93.93,0,0,0-.68-.24v-.28Z" transform="translate(-1.43 -2)"/><path class="cls-1" d="M139.66,28.78a3.77,3.77,0,0,1-2.34,1.15,1.39,1.39,0,0,1-1-.4,1.37,1.37,0,0,1-.4-1,2,2,0,0,1,.7-1.47,13.18,13.18,0,0,1,3.06-1.74V24.6a3.29,3.29,0,0,0-.09-1,.77.77,0,0,0-.33-.37,1,1,0,0,0-.55-.16,1.41,1.41,0,0,0-.82.22.39.39,0,0,0-.2.32.66.66,0,0,0,.21.4,1,1,0,0,1,.29.63.85.85,0,0,1-.28.64,1,1,0,0,1-.73.26,1.18,1.18,0,0,1-.81-.29.89.89,0,0,1-.32-.68,1.57,1.57,0,0,1,.44-1,2.74,2.74,0,0,1,1.21-.77,5,5,0,0,1,1.62-.27,2.64,2.64,0,0,1,1.6.44,2,2,0,0,1,.77.93,6.08,6.08,0,0,1,.11,1.47v2.77a2.93,2.93,0,0,0,0,.62.37.37,0,0,0,.11.18.27.27,0,0,0,.18.06q.2,0,.4-.28l.23.18a2.81,2.81,0,0,1-.79.82,1.71,1.71,0,0,1-.92.25,1.46,1.46,0,0,1-1-.28,1.31,1.31,0,0,1-.42-.87Zm0-.56V25.83A4.46,4.46,0,0,0,138.29,27a1.41,1.41,0,0,0-.3.83.87.87,0,0,0,.25.62.69.69,0,0,0,.53.21,1.47,1.47,0,0,0,.89-.43Z" transform="translate(-1.43 -2)"/><path class="cls-2" d="M145.84,22.69v.92a4.12,4.12,0,0,1,1.05-.86,2.23,2.23,0,0,1,1.08-.27,1.72,1.72,0,0,1,1.15.39,1.83,1.83,0,0,1,.61,1,7.42,7.42,0,0,1,.12,1.67v2.78a2.2,2.2,0,0,0,.15,1,.9.9,0,0,0,.63.25v.27H147v-.27a.75.75,0,0,0,.58-.34,2.2,2.2,0,0,0,.12-.95V25.1a5.21,5.21,0,0,0-.07-1.11.65.65,0,0,0-.24-.35.56.56,0,0,0-.36-.13q-.66,0-1.22.94v3.83a2.18,2.18,0,0,0,.15,1,.77.77,0,0,0,.56.27v.27h-3.61v-.27a.89.89,0,0,0,.64-.29,2.15,2.15,0,0,0,.13-1v-4a2,2,0,0,0-.15-1,.89.89,0,0,0-.62-.26v-.28Z" transform="translate(-1.43 -2)"/><path class="cls-2" d="M164.7,19.24v3.65h-.28a4.66,4.66,0,0,0-1.54-2.28,3.61,3.61,0,0,0-2.24-.78,2.88,2.88,0,0,0-1.93.66,3.51,3.51,0,0,0-1.09,1.82,9,9,0,0,0-.32,2.4,8.76,8.76,0,0,0,.35,2.61A3,3,0,0,0,158.78,29a3.27,3.27,0,0,0,1.86.53,4,4,0,0,0,.76-.08,5.77,5.77,0,0,0,.81-.24V27a2.26,2.26,0,0,0-.08-.79.77.77,0,0,0-.35-.33,1.29,1.29,0,0,0-.63-.15h-.27v-.28h5v.28a2.17,2.17,0,0,0-.8.16.77.77,0,0,0-.34.39,2.16,2.16,0,0,0-.07.71v2.15a10,10,0,0,1-2.07.66,10.58,10.58,0,0,1-2.22.23,6.55,6.55,0,0,1-2.45-.4,6.3,6.3,0,0,1-1.72-1.05,5,5,0,0,1-1.16-1.47,5.14,5.14,0,0,1-.53-2.36,5.32,5.32,0,0,1,1.64-3.95,5.66,5.66,0,0,1,4.13-1.61,7.22,7.22,0,0,1,1.39.12,6.92,6.92,0,0,1,1.08.35,4.61,4.61,0,0,0,.89.28.61.61,0,0,0,.4-.15,1.43,1.43,0,0,0,.34-.6Z" transform="translate(-1.43 -2)"/><path class="cls-1" d="M169.66,22.48a3.31,3.31,0,0,1,1.73.48,3.06,3.06,0,0,1,1.21,1.37,4.48,4.48,0,0,1,.42,1.94,4.11,4.11,0,0,1-.77,2.54A3,3,0,0,1,169.68,30a3,3,0,0,1-2.48-1.13,4.17,4.17,0,0,1-.87-2.62,4.22,4.22,0,0,1,.89-2.67,2.93,2.93,0,0,1,2.44-1.15Zm0,.54a.9.9,0,0,0-.67.3,2.08,2.08,0,0,0-.37,1.16q-.08.86-.08,2.41a10.25,10.25,0,0,0,.11,1.53,1.47,1.47,0,0,0,.36.82.85.85,0,0,0,.63.28.86.86,0,0,0,.57-.19,1.28,1.28,0,0,0,.4-.73,17.67,17.67,0,0,0,.15-2.93,7.2,7.2,0,0,0-.15-1.78,1.37,1.37,0,0,0-.43-.71.8.8,0,0,0-.52-.16Z" transform="translate(-1.43 -2)"/><path class="cls-2" d="M176.39,30,174,24.51a5.46,5.46,0,0,0-.68-1.27.91.91,0,0,0-.52-.27v-.28h3.8V23a.69.69,0,0,0-.49.13.52.52,0,0,0-.18.4,3.42,3.42,0,0,0,.34,1.06l1.18,2.68.94-2.31a4.48,4.48,0,0,0,.4-1.41.47.47,0,0,0-.18-.38A1,1,0,0,0,178,23v-.28h2.34V23a1,1,0,0,0-.55.25,4.66,4.66,0,0,0-.64,1.21L176.75,30Z" transform="translate(-1.43 -2)"/><path class="cls-1" d="M185.95,26H182a3.69,3.69,0,0,0,.76,2.25,1.6,1.6,0,0,0,1.27.63,1.46,1.46,0,0,0,.83-.25,3.29,3.29,0,0,0,.8-.92l.26.17a4.36,4.36,0,0,1-1.28,1.68A2.78,2.78,0,0,1,183,30a2.71,2.71,0,0,1-2.41-1.22,4.31,4.31,0,0,1-.66-2.44,4.05,4.05,0,0,1,1-2.84,3,3,0,0,1,2.27-1.06,2.44,2.44,0,0,1,1.88.89,4,4,0,0,1,.86,2.64Zm-1.88-.51a6.86,6.86,0,0,0-.14-1.69,1.36,1.36,0,0,0-.41-.7.63.63,0,0,0-.43-.14.75.75,0,0,0-.65.39,3.34,3.34,0,0,0-.45,1.86v.27Z" transform="translate(-1.43 -2)"/><path class="cls-2" d="M189.33,22.69v1.62a5.16,5.16,0,0,1,1.24-1.47,1.83,1.83,0,0,1,1-.37.89.89,0,0,1,.68.27,1,1,0,0,1,.26.74,1.15,1.15,0,0,1-.25.79.76.76,0,0,1-.6.28,1,1,0,0,1-.7-.26l-.35-.29a.34.34,0,0,0-.18,0,.64.64,0,0,0-.42.17,1.59,1.59,0,0,0-.47.74,5.19,5.19,0,0,0-.24,1.63v2.07a1.76,1.76,0,0,0,.05.56.63.63,0,0,0,.27.31,1.67,1.67,0,0,0,.61.11v.27h-3.86v-.27a.84.84,0,0,0,.63-.25,2.36,2.36,0,0,0,.17-1.15V24.2a3,3,0,0,0-.06-.78.62.62,0,0,0-.22-.31,1.18,1.18,0,0,0-.51-.14v-.28Z" transform="translate(-1.43 -2)"/><path class="cls-2" d="M195.92,22.69v.92a4.12,4.12,0,0,1,1.05-.86,2.23,2.23,0,0,1,1.08-.27,1.72,1.72,0,0,1,1.15.39,1.83,1.83,0,0,1,.61,1,7.4,7.4,0,0,1,.12,1.67v2.78a2.2,2.2,0,0,0,.15,1,.9.9,0,0,0,.63.25v.27H197.1v-.27a.75.75,0,0,0,.58-.34,2.19,2.19,0,0,0,.12-.95V25.1a5.2,5.2,0,0,0-.07-1.11.65.65,0,0,0-.24-.35.56.56,0,0,0-.36-.13q-.66,0-1.22.94v3.83a2.18,2.18,0,0,0,.15,1,.77.77,0,0,0,.56.27v.27H193v-.27a.89.89,0,0,0,.64-.29,2.15,2.15,0,0,0,.13-1v-4a2,2,0,0,0-.15-1A.89.89,0,0,0,193,23v-.28Z" transform="translate(-1.43 -2)"/><path class="cls-2" d="M204.2,22.69v.94a4.05,4.05,0,0,1,1.08-.89,2.37,2.37,0,0,1,1.1-.26,2,2,0,0,1,1.15.32,2,2,0,0,1,.72,1,4.57,4.57,0,0,1,1.17-1,2.44,2.44,0,0,1,1.18-.31,1.85,1.85,0,0,1,1.18.34,1.71,1.71,0,0,1,.61.86,5.68,5.68,0,0,1,.18,1.67v2.93a2.14,2.14,0,0,0,.15,1,.92.92,0,0,0,.63.26v.27h-3.69v-.27a.82.82,0,0,0,.64-.34,2,2,0,0,0,.14-.95V25.2a5.71,5.71,0,0,0-.08-1.21.7.7,0,0,0-.24-.38.59.59,0,0,0-.38-.13,1.13,1.13,0,0,0-.66.24,3,3,0,0,0-.68.72v3.83a2.18,2.18,0,0,0,.13,1,.79.79,0,0,0,.67.31v.27h-3.7v-.27a.82.82,0,0,0,.47-.15.64.64,0,0,0,.23-.32,3.39,3.39,0,0,0,.06-.82V25.2a5.57,5.57,0,0,0-.08-1.21.74.74,0,0,0-.26-.38.61.61,0,0,0-.38-.14,1,1,0,0,0-.56.16,3.11,3.11,0,0,0-.76.81v3.83a2.25,2.25,0,0,0,.15,1,.79.79,0,0,0,.63.28v.27h-3.68v-.27a.89.89,0,0,0,.64-.29,2.15,2.15,0,0,0,.13-1v-4a2,2,0,0,0-.15-1,.89.89,0,0,0-.62-.26v-.28Z" transform="translate(-1.43 -2)"/><path class="cls-1" d="M219.69,26h-3.92a3.69,3.69,0,0,0,.76,2.25,1.6,1.6,0,0,0,1.27.63,1.46,1.46,0,0,0,.83-.25,3.29,3.29,0,0,0,.8-.92l.26.17a4.36,4.36,0,0,1-1.28,1.68,2.78,2.78,0,0,1-1.63.49,2.71,2.71,0,0,1-2.41-1.22,4.31,4.31,0,0,1-.66-2.44,4.05,4.05,0,0,1,1-2.84,3,3,0,0,1,2.27-1.06,2.44,2.44,0,0,1,1.88.89,4,4,0,0,1,.86,2.64Zm-1.88-.51a6.86,6.86,0,0,0-.14-1.69,1.36,1.36,0,0,0-.41-.7.63.63,0,0,0-.43-.14.75.75,0,0,0-.65.39,3.34,3.34,0,0,0-.45,1.86v.27Z" transform="translate(-1.43 -2)"/><path class="cls-2" d="M222.87,22.69v.92a4.12,4.12,0,0,1,1.05-.86,2.23,2.23,0,0,1,1.08-.27,1.72,1.72,0,0,1,1.15.39,1.83,1.83,0,0,1,.61,1,7.42,7.42,0,0,1,.12,1.67v2.78a2.2,2.2,0,0,0,.15,1,.9.9,0,0,0,.63.25v.27h-3.61v-.27a.76.76,0,0,0,.58-.34,2.2,2.2,0,0,0,.12-.95V25.1a5.21,5.21,0,0,0-.07-1.11.65.65,0,0,0-.24-.35.56.56,0,0,0-.36-.13q-.66,0-1.22.94v3.83a2.18,2.18,0,0,0,.15,1,.77.77,0,0,0,.56.27v.27H220v-.27a.89.89,0,0,0,.64-.29,2.15,2.15,0,0,0,.13-1v-4a2,2,0,0,0-.15-1A.89.89,0,0,0,220,23v-.28Z" transform="translate(-1.43 -2)"/><path class="cls-2" d="M230.71,20.08v2.61h1.7v.76h-1.7v4.41a3.65,3.65,0,0,0,.05.8.62.62,0,0,0,.21.29.46.46,0,0,0,.27.11q.5,0,.94-.76l.23.17a2.09,2.09,0,0,1-2,1.47,1.8,1.8,0,0,1-1.15-.37,1.69,1.69,0,0,1-.6-.85,7.19,7.19,0,0,1-.08-1.41V23.45h-.93v-.27a9.72,9.72,0,0,0,1.63-1.43,8.61,8.61,0,0,0,1.18-1.67Z" transform="translate(-1.43 -2)"/><path class="cls-2" d="M27.18,46.88a.48.48,0,0,1-.2.2" transform="translate(-1.43 -2)"/><path class="cls-2" d="M29,32.89a.38.38,0,1,0-.37-.38.37.37,0,0,0,.37.38Z" transform="translate(-1.43 -2)"/><path class="cls-2" d="M46.3,17.1H32.82V28a2.47,2.47,0,0,0,1.06,2.25l5.18,3.1a.63.63,0,0,0,.89,0l5.26-3.14A2.47,2.47,0,0,0,46.29,28V17.1Zm-9,3.15H36.14V17.46H37.3v2.79Zm-.85,1,.17-.17-.1-.19.22,0,.13-.23.13.23.22,0-.1.19.17.17-.21,0v.24l-.2-.15-.2.15v-.24l-.21,0ZM33.2,24.68V22h1.42v2.65Zm.23-3.83.22,0,.13-.23.13.23.22,0L34,21l.17.17-.21,0v.24l-.2-.15-.2.15v-.24l-.21,0,.17-.17-.1-.19ZM35,23.54l.22,0,.13-.23.13.23.22,0-.1.19.17.17-.21,0v.24l-.2-.15-.2.15v-.24l-.21,0,.17-.17-.1-.19ZM36,21.42c0-.07-.1-.09-.14-.09s-.18.21-.28.21-.13,0-.13-.08.16-.13.22-.19c-.87,0-.89.4-1,.4s.19-.42.31-.54c-.18,0-.28-.25-.47-.36.09-.13.14-.07.26,0,0-.09.07-.2.27-.2.39,0,.28.38.34.38s0-.38.26-.38.87,1,.43,1c-.19,0,0-.14,0-.17ZM35,18.5l.17-.17-.1-.19.22,0,.13-.23.13.23.22,0-.1.19.17.17-.21,0v.24l-.2-.15-.2.15v-.24l-.21,0Zm-.35-1v2.79H33.2V17.46ZM37.3,31.84l-3.22-1.93a2.31,2.31,0,0,1-.87-1.8V25.05h4.1v6.78Zm-1.17-7.15V22H37.3v2.65Zm5.32,7.37L40,32.95h0a.63.63,0,0,1-.39.14.63.63,0,0,1-.4-.14l-1.48-.88v-7h3.79v7Zm0-7.37H37.67V17.46h3.79v7.23Zm4.47,3.43a2.31,2.31,0,0,1-.87,1.8l-3.22,1.93V25.05h4.1v3.06Zm0-3.43h-4.1V17.46h4.1v7.23Z" transform="translate(-1.43 -2)"/><path class="cls-2" d="M37.08,27.55s-.51.16-.37.15a1.47,1.47,0,0,1,.41-.55c0-.17-.24,0-.47.1.77-1.1.27-.65-.15-.57.68-.74.5-.73,0-.5.4-.31.48-.69.42-.8-.37.5-.71.42-.71.88a1.84,1.84,0,0,1-.26,1c-.2.22,0-.81-.57-.81-.17,0-.57,0-.69.19.11,0,.27.27.27.38s.1.41-.08.41-.39-.38-.39-.56,0-.14,0-.4a1.46,1.46,0,0,0-1-1c0,.3.4.38.4.76-.17,0-.41-.31-.41-.12s.25.23.25.4-.29-.06-.29.12.16.13.2.29c-.12,0-.22,0-.24,0s0,.12.12.17-.08.13-.08.38c0,.86.54,1.26.93,1.26s.24-.2.27-.29c0,.15.15-.07.15.18s-.27.15-.27.38.43,0,.43.33a4,4,0,0,1-.05.56c0,.11.45-.15.42-.2s.1.36.3.35.16-.33.26-.36c-.06,0,.41.31.41.16,0-.4-.16-.23-.16-.51s.55-.2.47-.33-.12,0-.18-.23c0,0-.44-.64.09-.29s.62-.85.59-.91Z" transform="translate(-1.43 -2)"/><path class="cls-2" d="M51.46,30.39A.39.39,0,1,0,51,30a.42.42,0,0,0,.44.39Z" transform="translate(-1.43 -2)"/><path class="cls-2" d="M49.67,31.46a.39.39,0,1,0-.44-.39.42.42,0,0,0,.44.39Z" transform="translate(-1.43 -2)"/><path class="cls-2" d="M28.37,33.91a.39.39,0,1,0-.44-.39.42.42,0,0,0,.44.39Z" transform="translate(-1.43 -2)"/><path class="cls-2" d="M29.75,34a.39.39,0,1,0-.44-.39.42.42,0,0,0,.44.39Z" transform="translate(-1.43 -2)"/><path class="cls-2" d="M68.09,15.45a2.78,2.78,0,0,1,.33,2.94c-.26,0-.21-.35-.26-.54a3.52,3.52,0,0,1-.42-3c.31,0,.19.43.35.59Z" transform="translate(-1.43 -2)"/><path class="cls-2" d="M11.83,16.51a4.18,4.18,0,0,0,0,1.87c-.12.12-.09-.12-.21-.09-.92-.66-.49-2-.73-2.89a.18.18,0,0,1,.23,0,1.69,1.69,0,0,1,.7,1.16Z" transform="translate(-1.43 -2)"/><path class="cls-2" d="M70.11,16.58c.14.26-.12.52-.31.64a.61.61,0,0,1-.59-.26.54.54,0,0,1,.28-.62.61.61,0,0,1,.61.24Z" transform="translate(-1.43 -2)"/><path class="cls-2" d="M10.39,17.63a.7.7,0,0,1-.3.52c-.14,0-.35,0-.45-.12a.44.44,0,0,1-.09-.5.55.55,0,0,1,.45-.21c.16.07.33.12.4.31Z" transform="translate(-1.43 -2)"/><path class="cls-2" d="M71,18a.46.46,0,0,1-.63.59.63.63,0,0,1-.26-.4.71.71,0,0,1,.4-.43A.75.75,0,0,1,71,18Z" transform="translate(-1.43 -2)"/><path class="cls-2" d="M69.69,18.05c.19.09,0,.33,0,.47s-.28.31-.49.24-.26-.12-.3-.28a.52.52,0,0,1,.33-.54.58.58,0,0,1,.45.12Z" transform="translate(-1.43 -2)"/><path class="cls-2" d="M68,18.41c0,.26,0,.59-.28.64a.45.45,0,0,1-.54-.33.56.56,0,0,1,.35-.57.64.64,0,0,1,.47.26Z" transform="translate(-1.43 -2)"/><path class="cls-2" d="M13,18.52c.07.24-.16.38-.3.5a.48.48,0,0,1-.47-.26c-.16-.16,0-.31.09-.45a.44.44,0,0,1,.68.21Z" transform="translate(-1.43 -2)"/><path class="cls-2" d="M11.54,18.6a.48.48,0,0,1-.26.45.43.43,0,0,1-.47-.21.4.4,0,0,1,.21-.54c.26-.09.42.14.52.31Z" transform="translate(-1.43 -2)"/><path class="cls-2" d="M62.29,18.69a5,5,0,0,1,.47,1.7c-.09.45.07,1-.26,1.35-.33-.12-.35-.52-.56-.73a4.12,4.12,0,0,1,.09-2.6c.19-.07.19.17.26.28Z" transform="translate(-1.43 -2)"/><path class="cls-2" d="M10.44,19c.07.28-.14.43-.31.59a.55.55,0,0,1-.59-.33.59.59,0,0,1,.31-.57.6.6,0,0,1,.59.31Z" transform="translate(-1.43 -2)"/><path class="cls-2" d="M66,19.66a3.42,3.42,0,0,1,.12,2.27l-.14.12a9.19,9.19,0,0,1-1-1.92,3.15,3.15,0,0,1,.28-1.35c.16-.12.26,0,.33.17a.93.93,0,0,0,.38.71Z" transform="translate(-1.43 -2)"/><path class="cls-2" d="M69,19.23a.61.61,0,0,1-.35.57.42.42,0,0,1-.54-.28.51.51,0,0,1,.26-.57c.26-.14.52.1.64.28Z" transform="translate(-1.43 -2)"/><path class="cls-2" d="M11.57,20a.51.51,0,0,1-.35.45c-.19.14-.33-.09-.49-.17a.56.56,0,0,1,0-.54c.07-.14.24-.14.38-.19.21.12.42.21.47.45Z" transform="translate(-1.43 -2)"/><path class="cls-2" d="M12.6,19.85c.09.24-.16.35-.26.47-.28.09-.42-.12-.54-.28s.09-.38.26-.52.42.12.54.33Z" transform="translate(-1.43 -2)"/><path class="cls-2" d="M69.62,19.78c0,.31-.49.62-.54.92A2.38,2.38,0,0,1,67.62,22a1.13,1.13,0,0,1-.54.31c0-.47.38-.9.63-1.32a3.48,3.48,0,0,1,1.9-1.23Z" transform="translate(-1.43 -2)"/><path class="cls-2" d="M11.1,20.77a8.57,8.57,0,0,0,1,1.11.19.19,0,0,1-.16.24C10.75,22.05,10,20.87,9.41,20c.07-.26.38,0,.54-.07.4.31.85.4,1.15.8Z" transform="translate(-1.43 -2)"/><path class="cls-2" d="M69.95,21.1a3,3,0,0,1-1.46,2.56c-.26.09-.54.35-.8.19a11.86,11.86,0,0,1,2.07-2.75Z" transform="translate(-1.43 -2)"/><path class="cls-2" d="M65.44,21.79a.58.58,0,0,1-.4.69c-.26,0-.42-.19-.54-.38a.49.49,0,0,1,.33-.52.39.39,0,0,1,.28-.07c.14,0,.21.17.33.28Z" transform="translate(-1.43 -2)"/><path class="cls-2" d="M9.81,22a13.77,13.77,0,0,1,1.27,1.11c-.3.21-.68,0-1,0-.8-.28-1.34-1-2.16-1.21,0-.26.33-.17.49-.24A4.31,4.31,0,0,1,9.81,22Z" transform="translate(-1.43 -2)"/><path class="cls-2" d="M35,15c-1.32-.52-2.19.85-3.53.69-.16.09-.12.26-.21.38s-.19,0-.26,0c-.07-.57-.26-1.09-.33-1.63-.14-.24-.07-.57-.19-.8-.75-2.06,1.83-.5,2.35-1.7.45-1-.87-1.16-1.27-1.89V9.69c-.38-.38-.78-.5-1-1a3.43,3.43,0,0,0,.07-1.82c0-.14-.12-.33-.33-.26-.45.62-.78,1.11-1.2,1.7a12.65,12.65,0,0,0-1.39-1c-.35,0-.68-.4-1.08-.26a.32.32,0,0,0,.07.35,3.4,3.4,0,0,0,1.15,2.32l.07.36a10.67,10.67,0,0,0-.42,3.12,17.34,17.34,0,0,1-5.1,7.17c-1.34,1.52-2.94,3-3.15,5.07-.07.33,0,.73-.21,1a8.08,8.08,0,0,1-2.19-1.16c-1.08-.76-2.63-.66-3.34-2-.28-.54.07-1.09.33-1.49a2.73,2.73,0,0,0,.26-3c-.09,0-.12.09-.19.12-.07,1.4-1.18,2.37-.75,3.91.09.45.33.73.45,1.16a3.65,3.65,0,0,1-.54-.12,5.88,5.88,0,0,0-1.57-.21c-1.08.5-2.56-.12-3.43.88-.14,0-.33,0-.28.26.52,0,1,.14,1.53.12.82.14,1.36-.54,1.93-.85h.14c.24-.24.64-.09.94-.14a9.44,9.44,0,0,1,3.85,1.61v.09c-.47.21-1,.36-1.48.62a3.19,3.19,0,0,0-1.32,1.59c-.38.59.12,1.11.35,1.61,0,.24,0,.52.26.62.75-.81,0-1.8.16-2.72A1.93,1.93,0,0,1,15.66,26c1.34-.57,2.3.52,3.38,1.14a16,16,0,0,1-.12,3.2,2.93,2.93,0,0,1-1.11.17c-1.86.14-3.31,1.16-5,1.73-.75.26-1.64.24-2.4.52a5.84,5.84,0,0,0,1.81-.07c2.3-.33,4.07-2.11,6.56-1.8l0,.07a5.56,5.56,0,0,1-1.1,1.54c-.07-.26-.09-.47-.33-.62a.44.44,0,0,0-.54.19.32.32,0,0,0,0,.36.77.77,0,0,0,.52.33c0,.21-.31.31-.45.5-.66,1.11-2,.66-2.77,1.44-.12.17-.54.26-.35.52a3.53,3.53,0,0,0,2.42-.62c.87-1,1.79-1.89,2.66-2.82a2.82,2.82,0,0,1-.52,2.15,2.77,2.77,0,0,0-.63-.36.58.58,0,0,0-.42.47,1.39,1.39,0,0,0,.35.47,8.36,8.36,0,0,1-2.73.88,46.24,46.24,0,0,1-5.12.38,11.38,11.38,0,0,1-2.54,0c-.89.17-1.86-.12-2.59.38-.09.12,0,.24,0,.35,1.08.71,2.56.14,3.79.36h9.26a4.14,4.14,0,0,0,1.9-.36,6.89,6.89,0,0,0,2.47-3.12,4.85,4.85,0,0,0,.49-1.42,2,2,0,0,1,1.76-1.44,10.77,10.77,0,0,1-.4,3.6c-.14.76-.63,1.49-.33,2.3.07.38.47.38.78.43,2.84,0,5.69-.17,8.7,0a7.07,7.07,0,0,0,1.6.24c0-.07.21-.09.14-.24a.89.89,0,0,0-.56-.66c0-.14-.26-.09-.33-.19-1.5-.85-3.31-.4-5.08-.38a3.78,3.78,0,0,1-2.61-.26c-.35-.43-.09-1.78-.09-1.78A34,34,0,0,1,27.67,29a4.09,4.09,0,0,0,.14-1.09,4.58,4.58,0,0,0,.14-1.61,11,11,0,0,1,.73-2.2c.14-.36.26-.73.4-1.09a3.54,3.54,0,0,1,.47-1.23c.77.49,1.52.47,1.88,1.34l.32,2c0,.12.09.35.26.21.61-.4.42-1.3.42-1.92s-.38-1.09-.59-1.73a2.83,2.83,0,0,1-.43-.68c-.09-.52-1.23-.88-1-1.52a1.93,1.93,0,0,1,.8-1.35.25.25,0,0,1,.12.17l.28-.2,0-2c.76,0,1.9.09,2.67.09.21.07.38.24.61.26l.19-.26,1.9-.37c-.81.09-1.3-.84-2.07-.84Z" transform="translate(-1.43 -2)"/><path class="cls-3" d="M37,15.84l.18,0-.18,0Z" transform="translate(-1.43 -2)"/><path class="cls-2" d="M16.57,22.43a.52.52,0,0,1-.35.54c-.19-.07-.33-.09-.45-.28s.14-.45.33-.54.42.07.47.28Z" transform="translate(-1.43 -2)"/><path class="cls-2" d="M15,22.43a.52.52,0,0,1,.09.54c-.16.14-.42.26-.56.07s-.28-.31-.16-.5.45-.31.63-.12Z" transform="translate(-1.43 -2)"/><path class="cls-3" d="M47.76,22.69l0,0" transform="translate(-1.43 -2)"/><path class="cls-2" d="M65.67,23.09c.09.26-.12.45-.3.54-.24-.07-.54-.12-.54-.43a.45.45,0,0,1,.85-.12Z" transform="translate(-1.43 -2)"/><path class="cls-2" d="M66.92,23c.07.12.23.31,0,.43a.91.91,0,0,0-.24.19.46.46,0,0,1-.56-.28c0-.26.16-.38.35-.5s.28.07.4.17Z" transform="translate(-1.43 -2)"/><path class="cls-2" d="M9.15,23.33a.46.46,0,0,1-.63.31,1,1,0,0,1-.19-.31.44.44,0,0,1,.26-.4.56.56,0,0,1,.56.4Z" transform="translate(-1.43 -2)"/><path class="cls-2" d="M17.07,23.73c0,.19-.24.35-.4.45a.61.61,0,0,1-.52-.33.48.48,0,0,1,.28-.47.53.53,0,0,1,.64.36Z" transform="translate(-1.43 -2)"/><path class="cls-2" d="M15.68,23.57a.36.36,0,0,1,.07.38c-.14.12-.35.33-.59.19s-.31-.21-.26-.45a1,1,0,0,1,.35-.28c.19,0,.28.07.42.17Z" transform="translate(-1.43 -2)"/><path class="cls-2" d="M70.51,23.85a.63.63,0,0,1-.31.45.46.46,0,0,1-.52-.12c-.14,0-.09-.24-.09-.36a.81.81,0,0,1,.45-.31.86.86,0,0,1,.47.33Z" transform="translate(-1.43 -2)"/><path class="cls-2" d="M72,24.06a.59.59,0,0,1-.45.43c-.14,0-.4-.07-.35-.28a.42.42,0,0,1,.21-.38.41.41,0,0,1,.59.24Z" transform="translate(-1.43 -2)"/><path class="cls-2" d="M11.83,24.4a.46.46,0,0,1-.28.57c-.16.09-.33,0-.45-.12a.41.41,0,0,1-.12-.47c0-.21.26-.17.4-.26a.58.58,0,0,1,.45.28Z" transform="translate(-1.43 -2)"/><path class="cls-2" d="M13,24.61c.07.19-.14.26-.19.4a.39.39,0,0,1-.42,0c-.16-.14-.35-.35-.19-.57s.68-.17.8.12Z" transform="translate(-1.43 -2)"/><path class="cls-2" d="M69.13,24.49c0,.24-.19.4-.33.54a.4.4,0,0,1-.47-.28.49.49,0,0,1,.26-.45.51.51,0,0,1,.54.19Z" transform="translate(-1.43 -2)"/><path class="cls-2" d="M71.05,24.87c0,.21,0,.45-.26.59a.67.67,0,0,1-.56-.09.43.43,0,0,1-.09-.5.55.55,0,0,1,.56-.28c.16.09.21.21.35.28Z" transform="translate(-1.43 -2)"/><path class="cls-2" d="M10.93,25.37c.09.19-.12.24-.19.33a.47.47,0,0,1-.47,0c-.16-.09-.09-.33-.07-.45.21-.4.63-.12.73.17Z" transform="translate(-1.43 -2)"/><path class="cls-2" d="M69.57,25.82c.09,0,0,.17,0,.21a1.78,1.78,0,0,1-1.9-.09,7.34,7.34,0,0,0-.94-.52c.12-.31.54-.28.85-.36.68.09,1.22.73,2,.76Z" transform="translate(-1.43 -2)"/><path class="cls-2" d="M12.06,25.6c0,.19-.09.26-.14.4s-.28.09-.4,0a.39.39,0,1,1,.54-.45Z" transform="translate(-1.43 -2)"/><path class="cls-2" d="M14.13,25.74c.09.21,0,.4-.23.52s-.31,0-.45-.07-.33-.36-.12-.54c.21-.35.63-.17.8.1Z" transform="translate(-1.43 -2)"/><path class="cls-2" d="M41.3,26.75c0,.47-.83-.07-.71.56a3.6,3.6,0,0,0,.47,1.33c.22.32.11.81.09,1.19a2.13,2.13,0,0,1-.89.76c-.67-.07-1.65.34-2-.5A3.35,3.35,0,0,1,37.91,29c.07,0,.16,0,.22-.11s-.18-.25-.16-.41c.76-.14-.31-.81.33-.85.54.56,1.41.38,1.88,1a2.06,2.06,0,0,0,.33.29c-.09-.56-.36-1.12-.45-1.73a.78.78,0,0,1,.27-.79c.4-.31.74.13,1,.38Z" transform="translate(-1.43 -2)"/><path class="cls-2" d="M16.2,26.6c.07.24-.12.38-.26.5s-.33-.14-.42-.26.09-.36.24-.47a.51.51,0,0,1,.45.24Z" transform="translate(-1.43 -2)"/><path class="cls-2" d="M30.7,26.83a3.25,3.25,0,0,1-.28,2.65c0,.19,0,.5-.21.47-.63-.88-.16-2.11.09-3,0-.24.33-.33.4-.09Z" transform="translate(-1.43 -2)"/><path class="cls-2" d="M50.82,27.28a2.67,2.67,0,0,1,0,2.2l-.19.19A5.41,5.41,0,0,1,50.14,28a5.71,5.71,0,0,0,.28-1.25c.33-.07.31.36.4.54Z" transform="translate(-1.43 -2)"/><path class="cls-2" d="M18,27.54c-.14.28-.54.35-.8.54a2.8,2.8,0,0,1-2.09.4,2.56,2.56,0,0,1,2.68-1.11c0,.09.17,0,.21.17Z" transform="translate(-1.43 -2)"/><path class="cls-2" d="M8.37,28.4A6.37,6.37,0,0,1,10,30.72c.07.09.31.12.21.31s-.38-.14-.63-.09a2.6,2.6,0,0,1-1.43-2.44c0-.09.14-.09.24-.09Z" transform="translate(-1.43 -2)"/><path class="cls-2" d="M49.9,29.13c0,.24,0,.47-.21.54a.43.43,0,0,1-.54-.28c-.07-.17.07-.26.12-.38a.42.42,0,0,1,.63.12Z" transform="translate(-1.43 -2)"/><path class="cls-2" d="M59.82,30.38a11.79,11.79,0,0,1,.16-1.3.86.86,0,0,0,.09-.5c.56-.76,1.72-.52,2.61-.45a5,5,0,0,0,1.18.26.86.86,0,0,1,.59-.12c.75-.4.26-1.28.31-2l-.28-.71a2.75,2.75,0,0,1-.19-.47c-.14-.17-.23-.47-.38-.64A9.44,9.44,0,0,0,62.08,22a9.93,9.93,0,0,0-5-3.05c-1.86-.64-3.74.19-5.41.78a1.35,1.35,0,0,1-.92-1,4.7,4.7,0,0,1,.45-2.51,9.27,9.27,0,0,1,.63-1.59,16.89,16.89,0,0,0,1-4.07,2.14,2.14,0,0,0-1.27-1.87A1.28,1.28,0,0,0,50.28,9a3.43,3.43,0,0,1-1.53,1.37c0,.4.45.14.61.28.52.09,1.11-.07,1.53.26a4,4,0,0,1-1,2.44A18.81,18.81,0,0,0,47.76,17l-.09-.09.11,5.79c.75,1.25,1.68,2.67,3.08,3.14.75.61,1.69,1.35,2.7.8.54-.17.59.59.85.9.28.88-.35,1.49-.4,2.3l-.61,1.3a16.94,16.94,0,0,1-2.42,4c-.35,0-.56.38-.92.4-.19.26-.56.07-.8.17-.73.31-1.76.12-2.26.8a.32.32,0,0,0,.19.12c1.43,0,3,.12,4.56,0a.57.57,0,0,0,.38-.45c-.21-.4.07-.76.26-1.07.12-.57.49-.92.66-1.47.49-1,1.06-1.92,1.6-2.89l.73-1.18a8.34,8.34,0,0,1,.73-1.33,3,3,0,0,0,.42-.64c0-.24-.09-.33-.24-.5.16-.17.42-.12.64-.17a2.66,2.66,0,0,1,1.32,1.56l.21.61.09.28,0,.78.09.73a16.9,16.9,0,0,1-.21,3.43c-.4,1.37-2,1.23-3.1,1.54-.28.19-.82.09-.82.57a21,21,0,0,0,4.42.09c.23-.09.28-.31.4-.52s.35-.57.26-.9c-.26-.33,0-.85-.09-1.3a.73.73,0,0,0,0-.45c.19-.69.14-1.51.28-2.18l.09-.9Z" transform="translate(-1.43 -2)"/><path class="cls-2" d="M71.38,29.46c-.75,1.06-1.55,2.27-2.87,2.65-.09,0-.19,0-.24-.07.8-.85,1.22-2.18,2.47-2.49a.77.77,0,0,1,.63-.09Z" transform="translate(-1.43 -2)"/><path class="cls-2" d="M7.22,30.62c-.12.09,0,.31-.23.33a.38.38,0,0,1-.49-.21.42.42,0,0,1,.3-.52c.19.09.38.17.42.4Z" transform="translate(-1.43 -2)"/><path class="cls-2" d="M14,31c.07.21-.16.21-.28.26a2.56,2.56,0,0,1-2.7-.69c0-.09,0-.19.09-.21,1,.24,2.09,0,2.89.64Z" transform="translate(-1.43 -2)"/><path class="cls-2" d="M8.51,30.64a.62.62,0,0,1,0,.36.52.52,0,0,1-.59.21.76.76,0,0,1-.31-.31.56.56,0,0,1,.4-.45.7.7,0,0,1,.45.19Z" transform="translate(-1.43 -2)"/><path class="cls-2" d="M30.53,30.76c0,.21-.14.36-.28.45a.46.46,0,0,1-.49-.19.34.34,0,0,1,.16-.45c.21,0,.54,0,.61.19Z" transform="translate(-1.43 -2)"/><path class="cls-2" d="M72.28,30.86c.07.24-.14.35-.3.5a.51.51,0,0,1-.45-.07c0-.12-.16-.21-.12-.38a.5.5,0,0,1,.54-.28,2.73,2.73,0,0,1,.33.24Z" transform="translate(-1.43 -2)"/><path class="cls-2" d="M73.83,30.76c.14.21,0,.38-.09.54a.32.32,0,0,1-.42.14c-.14-.14-.33-.21-.35-.43s.21-.33.35-.4.33.14.52.14Z" transform="translate(-1.43 -2)"/><path class="cls-2" d="M6.23,31.45c0,.17-.12.26-.16.4s-.24.14-.38.09a.69.69,0,0,1-.35-.38.61.61,0,0,1,.42-.47.61.61,0,0,1,.47.35Z" transform="translate(-1.43 -2)"/><path class="cls-2" d="M55.73,31.45a.68.68,0,0,1,0,.31c-.14.19-.33.36-.56.24s-.31-.28-.23-.5a.46.46,0,0,1,.78,0Z" transform="translate(-1.43 -2)"/><path class="cls-2" d="M10,31.8c0,.17-.12.33-.33.35s-.28-.17-.4-.26,0-.43.19-.54a.43.43,0,0,1,.54.45Z" transform="translate(-1.43 -2)"/><path class="cls-2" d="M7.76,31.85a.5.5,0,0,1-.24.52A.55.55,0,0,1,6.89,32a.67.67,0,0,1,.42-.54c.21,0,.33.24.45.36Z" transform="translate(-1.43 -2)"/><path class="cls-2" d="M57.28,31.8a.47.47,0,0,1-.26.57c-.28.09-.52-.14-.63-.33.12-.19.14-.45.42-.5a.54.54,0,0,1,.47.26Z" transform="translate(-1.43 -2)"/><path class="cls-2" d="M8.87,31.9c.07.17-.07.24-.12.35s-.19.14-.33.09-.28-.17-.31-.33.14-.36.31-.45a.43.43,0,0,1,.45.33Z" transform="translate(-1.43 -2)"/><path class="cls-2" d="M71,32.09a.7.7,0,0,1-.4.38c-.19,0-.31-.12-.45-.19s-.07-.31,0-.43a.47.47,0,0,1,.87.24Z" transform="translate(-1.43 -2)"/><path class="cls-2" d="M72.77,32.18a.61.61,0,0,1-.56.4c-.21-.09-.45-.26-.28-.54.09-.09.14-.19.28-.21a.45.45,0,0,1,.56.36Z" transform="translate(-1.43 -2)"/><path class="cls-2" d="M61.61,32.35c.12.31-.16.4-.35.54a1.07,1.07,0,0,1-.45-.19.55.55,0,0,1,.33-.62.57.57,0,0,1,.47.26Z" transform="translate(-1.43 -2)"/><path class="cls-2" d="M55.14,32.63c.12,0,.07.21,0,.28s-.33.33-.54.19a.4.4,0,0,1-.23-.45.44.44,0,0,1,.73,0Z" transform="translate(-1.43 -2)"/><path class="cls-2" d="M56.46,32.8a.32.32,0,0,1-.19.38c-.16.17-.35,0-.52-.07a.38.38,0,0,1,0-.35.52.52,0,0,1,.31-.19c.16,0,.35,0,.42.24Z" transform="translate(-1.43 -2)"/><path class="cls-2" d="M16.57,32.82c.14.14,0,.31,0,.45a.46.46,0,0,1-.59.12c-.23-.09-.21-.4-.16-.59s.14-.21.33-.21a.82.82,0,0,1,.47.24Z" transform="translate(-1.43 -2)"/><path class="cls-2" d="M64.12,32.92c0,.24-.19.33-.35.38s-.42-.12-.54-.31.14-.24.19-.35c.33-.14.54.09.7.28Z" transform="translate(-1.43 -2)"/><path class="cls-2" d="M62.85,32.92c.09.24-.16.36-.26.47a.47.47,0,0,1-.52-.09c-.12-.07-.12-.21-.12-.36s.21-.26.38-.31a.61.61,0,0,1,.52.28Z" transform="translate(-1.43 -2)"/><path class="cls-2" d="M73.45,33.2c0,.33-.38.17-.54.26-1,.59-2.26.14-3.2-.21.07-.31.42-.19.61-.31,1-.64,2,.14,3.05.19l.07.07Z" transform="translate(-1.43 -2)"/><path class="cls-2" d="M9.12,32.92,9,33.08a3.81,3.81,0,0,1-3,.54l-.09-.14a4.25,4.25,0,0,1,3.15-.64l.07.07Z" transform="translate(-1.43 -2)"/><path class="cls-2" d="M66.52,33.08a.54.54,0,0,1-.24.45.47.47,0,0,1-.61-.26c-.07-.19.12-.38.31-.45s.45,0,.54.26Z" transform="translate(-1.43 -2)"/><path class="cls-2" d="M13.33,33.18c-.09.19,0,.38-.28.47a.51.51,0,0,1-.59-.31c-.07-.26.12-.33.23-.45.28-.14.49.07.63.28Z" transform="translate(-1.43 -2)"/><path class="cls-2" d="M11.66,33.3c.07.17-.07.26-.12.38a.43.43,0,0,1-.47.07c-.16-.14-.33-.31-.26-.57a1.33,1.33,0,0,1,.38-.26.53.53,0,0,1,.47.38Z" transform="translate(-1.43 -2)"/><path class="cls-2" d="M68.16,33.84a.51.51,0,0,1-.38.43.53.53,0,0,1-.45-.24.37.37,0,0,1,.09-.45c0-.07.21-.07.31-.12a.51.51,0,0,1,.42.38Z" transform="translate(-1.43 -2)"/><path class="cls-2" d="M9.92,33.58c.07.19-.09.26-.12.4a3.47,3.47,0,0,1-.52,1c-.45.54-1.08.54-1.72.71l-.09-.19a6.18,6.18,0,0,1,2.37-2l.07,0Z" transform="translate(-1.43 -2)"/><path class="cls-2" d="M67,34.1c0,.28-.19.33-.35.45a.53.53,0,0,1-.47-.28c-.07-.26.16-.36.31-.47a.47.47,0,0,1,.52.31Z" transform="translate(-1.43 -2)"/><path class="cls-2" d="M12.63,34.1s0,.09.07.12c0,.26-.21.33-.35.45a.64.64,0,0,1-.52-.24.39.39,0,0,1,.23-.54c.21,0,.49,0,.56.21Z" transform="translate(-1.43 -2)"/><path class="cls-2" d="M71.31,34.81c.23,0,.28-.31.54-.36a.57.57,0,0,1,.56.26c.09.28-.12.43-.31.54s-.52-.14-.49.17a.73.73,0,0,1,.33.47c0,.09-.21.07-.28,0A3,3,0,0,1,70,34.46c-.09-.21-.54-.38-.28-.57a2.17,2.17,0,0,1,1.62.92Z" transform="translate(-1.43 -2)"/><path class="cls-2" d="M73.57,34.08a.36.36,0,0,1,0,.45c-.12.24-.47.14-.68.12s-.23-.24-.19-.43a.75.75,0,0,1,.35-.31.65.65,0,0,1,.54.17Z" transform="translate(-1.43 -2)"/><path class="cls-2" d="M65,35.36a3.4,3.4,0,0,1,.52.95c0,.07-.16,0-.21,0-.8-.45-1.83-.95-2.14-1.89-.07-.09-.26-.21-.23-.38a2.19,2.19,0,0,1,1.62.66c.16.24.35.36.45.62Z" transform="translate(-1.43 -2)"/><path class="cls-2" d="M11.31,34.46c.09.21-.09.38-.21.47a.54.54,0,0,1-.54-.19c-.16-.26.14-.47.33-.57s.3.17.42.28Z" transform="translate(-1.43 -2)"/><path class="cls-2" d="M68,35c0,.14-.16.24-.23.33s-.38.09-.54-.07-.16-.31,0-.43c.26-.33.63-.07.8.17Z" transform="translate(-1.43 -2)"/><path class="cls-2" d="M73.83,35.33a.56.56,0,0,1-.33.59.62.62,0,0,1-.56-.21c-.12-.14,0-.28,0-.45a.59.59,0,0,1,.61-.17,1.26,1.26,0,0,1,.28.24Z" transform="translate(-1.43 -2)"/><path class="cls-2" d="M57.56,38.6c0,.28-.52.21-.73.43a5,5,0,0,1-2.47.36v-.14a3.49,3.49,0,0,1,3.2-.64Z" transform="translate(-1.43 -2)"/><path class="cls-2" d="M23.27,39.62a.39.39,0,0,1-.75.17c-.09-.28.14-.4.31-.52a.55.55,0,0,1,.45.35Z" transform="translate(-1.43 -2)"/><path class="cls-2" d="M57.16,39.88a.67.67,0,0,1-.35.54c-.21,0-.35-.07-.52-.17s0-.26-.07-.38a.51.51,0,0,1,.94,0Z" transform="translate(-1.43 -2)"/><path class="cls-2" d="M61.84,40a3.85,3.85,0,0,1-2,.83l-1.27,0-.12-.09c.78-.95,2.19-.95,3.41-.85V40Z" transform="translate(-1.43 -2)"/><path class="cls-2" d="M16.83,40.54a.43.43,0,0,1-.31.45.41.41,0,0,1-.31-.76c.26-.17.52.12.61.31Z" transform="translate(-1.43 -2)"/><path class="cls-2" d="M18,40.78c.07.12,0,.19-.09.31a.39.39,0,0,1-.45,0,.3.3,0,0,1-.14-.4c.07-.14.21-.12.28-.21a.66.66,0,0,1,.4.31Z" transform="translate(-1.43 -2)"/><path class="cls-2" d="M9,43.17c-.24.28-.61-.07-.87-.21-.82-.47-.8-1.4-1.62-1.94.09-.28.3,0,.47,0a3.12,3.12,0,0,0,.49.26c.8.45,1,1.21,1.53,1.92Z" transform="translate(-1.43 -2)"/><path class="cls-2" d="M77.52,34a1.87,1.87,0,0,0-1.76-1,1.62,1.62,0,0,0-1.32,1,1.2,1.2,0,0,0,.45,1.3.36.36,0,0,0,.47-.12c.12-.31-.21-.31-.26-.55a.78.78,0,0,1,.26-.83c.23-.24.63-.12.92-.12a1.65,1.65,0,0,1,.7.69,1.9,1.9,0,0,1,0,1.25,2.1,2.1,0,0,1-1.46,1.18c-2,.28-23.36.19-23.36.19-2.51.24-5.38-.47-7.54.85a3.73,3.73,0,0,0-1.74,2.53A17.17,17.17,0,0,0,41,42.24L41,42.17c.12-.57.38-1.07.49-1.63a9.76,9.76,0,0,0,.61-1.63A13,13,0,0,1,45.2,35c.59-.78,1.62-.64,2.51-.64a6.24,6.24,0,0,0,3.27.47.22.22,0,0,0,.07-.17c-.33-.31-.87-.43-1.25-.73-.94-.45-1.83.14-2.82.07,0,0-.09-.07-.07-.14a13.89,13.89,0,0,1,2.91-1.56,20,20,0,0,1,2.56-1c.35,0,.68-.31,1-.09l1.25-.33s.09.09.19.07c1.06-.36,2.4,0,3.6,0l.17.14,1.13.28c.42,0,.61.54,1.06.57.23-.33-.26-.47-.38-.69A2.58,2.58,0,0,1,62,31.4l-.23.26c-.14.26.07.45.28.54s.28-.07.4-.12c.31-.21,0-.43.07-.62a22.43,22.43,0,0,1,5,1.42,4,4,0,0,0,1.36.45,6.18,6.18,0,0,0-1.79-.95c-.4-.24-1-.26-1.27-.59.07-.12.23-.07.3-.17a3.49,3.49,0,0,0,2-1.33c0-.14.3-.09.28-.28-.21-.24-.56.07-.85,0-1,.19-1.41,1.35-2.4,1.56-1.2-.28-2.42-.57-3.62-.88a7.31,7.31,0,0,1-1.76-.38l-1.32-.12h-2.4s-.09-.07-.07-.14c.85-.21,1.57-.71,2.42-.92l6.3-2.89a15.48,15.48,0,0,0,1.79-1.94.45.45,0,0,0-.26-.45.39.39,0,0,0-.47.09c-.28.21,0,.47,0,.73a4,4,0,0,1-1.08.92c-.09,0-6.49,2.91-6.49,2.91a16.16,16.16,0,0,1-2.87,1.07L54,29.86a.9.9,0,0,1-.59.54,5.61,5.61,0,0,1-1.08.31c-3.06,1.18-6.23,2.44-8.65,4.85a2.68,2.68,0,0,0,.23-1,2,2,0,0,0-.26-1c-.05-.13-.23-.51-.17-.65l-.34.22a3.29,3.29,0,0,0-.19,2c.07.43.42.92.09,1.3A21.78,21.78,0,0,0,40.55,41c-.28,0-.42-.31-.54-.57A7.89,7.89,0,0,0,41.68,37c.16-.12,0-.43.21-.57,0-.38.21-.76,0-1.07.15-.52-.69-1-.15-1.32l-.44.21c-1,1.33.52,3.31-.63,4.59v.09a4,4,0,0,1-.94,1.14c-.56-.24-.78-.88-1.1-1.35a2.1,2.1,0,0,1-.21-2.2c.21-.69-.14-1.28-.21-1.89L38,34.48a2.73,2.73,0,0,0-.33,2.77c.23.43.26,1,.61,1.37a7.65,7.65,0,0,0,1,1.75c.09.24-.14.28-.26.4-.26-.17-.21-.54-.45-.71a17.23,17.23,0,0,0-3-4.33c0-.21-.26-.4-.14-.64a1.73,1.73,0,0,0,.31-1.8c0-.12-.19-.26-.16-.38l-.35-.28c0,.83-.49,1.56-.26,2.44v0a44.73,44.73,0,0,0-7.82-4.73l-.22.6a16.25,16.25,0,0,1,2.52,1.29,16.18,16.18,0,0,1,2.35,1.25,16.19,16.19,0,0,1,6.74,8c0,.26.26.54.09.8a12.9,12.9,0,0,0-1.79-1.8A3.45,3.45,0,0,0,35,37.89c-.35-.52-1.1-.57-1.69-.73l-8.56,0c-7-.1-13.3.21-20.21.09-1-.09-2.14-.43-2.42-1.44a1.57,1.57,0,0,1,0-1.3,1.44,1.44,0,0,1,1.2-.64,1.26,1.26,0,0,1,.8.66c0,.31-.26.59-.38.85,0,.09.12.28.28.21a1.1,1.1,0,0,0,.61-.76c0-.17.09-.4-.07-.52a1.57,1.57,0,0,0-1.1-1,2,2,0,0,0-1.6.54,2,2,0,0,0-.38,2,3.17,3.17,0,0,0,2.54,1.89l22.87.1c2.23.12,4.75-.26,7,.19a2.7,2.7,0,0,1,1.9,1.8s-.09,0-.16,0A10.18,10.18,0,0,0,29,38.46a8.17,8.17,0,0,0-2.63.54,1.33,1.33,0,0,1-1.15-.38,3.9,3.9,0,0,0-3.41-.43c0,.07,0,.14,0,.17,1.15-.09,1.83.9,2.87,1,.23,0,.42-.21.63,0a21.24,21.24,0,0,1-3.27,1.47c-.35-.07-.54-.4-.82-.59-.45-.5-1.27-.28-1.88-.33-.21,0-.4-.09-.54,0a2,2,0,0,0,1,.78c.59.26,1.27,0,1.81.33a2.26,2.26,0,0,1-.49.33c-1.1.43-2,1.42-3.24,1.35a4.19,4.19,0,0,1-3.48-1.14,2.36,2.36,0,0,0-2.37-1.37c-.07,0-.16,0-.14.17.52.31.92.92,1.43,1.28.33.4,1,0,1.27.45a4.19,4.19,0,0,0,1.53.66,6.66,6.66,0,0,0,1.22.33l-.16.09a20.13,20.13,0,0,1-7,.69c-.7,0-1.39-.24-2.09-.21a1.33,1.33,0,0,0,.56.33,1.43,1.43,0,0,1-.63.19,4.19,4.19,0,0,0-.89.24,2.35,2.35,0,0,0-1,.24A4.78,4.78,0,0,1,4.8,45.72c0,.09,0,.24.09.24.45-.19,1,0,1.46-.24.77-.07,1.22-.92,1.83-1.28a3.1,3.1,0,0,1,2.4-.28c.47.12,0,.31.09.62s.35.35.61.28a.41.41,0,0,1,.16-.12.54.54,0,0,0,0-.59c.33-.21.78,0,1.13-.12.89,0,1.79-.21,2.66-.24.14,0,.31-.17.45,0-.07.19-.31.21-.21.47s.28.31.47.36.45-.26.35-.57S16.08,44,16,44c.49-.24,1.06-.31,1.55-.54a4.4,4.4,0,0,0,1-.33c.31,0,.56-.31.85-.19A4.88,4.88,0,0,1,18.85,44a5.67,5.67,0,0,0,0,4.12c.07,0,.09,0,.14,0a5.65,5.65,0,0,1,.21-3.88c.33-2,2.4-2.6,3.88-3.36l.07.1a7.38,7.38,0,0,0-.89,3.29c0,.21-.09.43,0,.57a2.49,2.49,0,0,0,.87-1.09c.16-1.06-.45-2.39.64-3.17,1.93-.76,3.74-1.75,6-1.78.07.07.24,0,.26.09-.47.52-1.15,1-1.36,1.66a5.34,5.34,0,0,0-.4,4.1c.21.73-.42,1.14-.73,1.7-.15.2-.19.55-.32.78l.46.05a2.52,2.52,0,0,0,.8-1.56.65.65,0,0,0,.45.47c.16-.26-.14-.45-.16-.71.38-.21.54.26.85.36a6,6,0,0,0,1.43.33l.16-.17a2.91,2.91,0,0,0-2.44-1,4.74,4.74,0,0,1-.42-2.7,4.14,4.14,0,0,1,.47-1.47,3.54,3.54,0,0,1,.66-.9,3.27,3.27,0,0,1,1.48-.8H31a.11.11,0,0,0,0,.07c-.63.5-.7,1.18-1.08,1.8A2,2,0,0,0,29.71,43c.14.31.07.78.4,1a5.24,5.24,0,0,0,.49-1.44c-.07-.78-.54-1.51-.09-2.27a1.94,1.94,0,0,1,1.27-1,7.28,7.28,0,0,1,3.55,1c.24.17.63.31.68.64a1.92,1.92,0,0,1-3,1.56A1.62,1.62,0,0,1,32.63,41a1,1,0,0,1,1-.38c.23.12.45.36.75.21a.3.3,0,0,0,.09-.38c-.26-.14-.35-.5-.71-.54a1.52,1.52,0,0,0-1.29.26A1.67,1.67,0,0,0,32,41.82a2,2,0,0,0,1.46,1.51,2.73,2.73,0,0,0,2.89-1,3.21,3.21,0,0,0,.52-1,6.14,6.14,0,0,1,2.42,3.13,5,5,0,0,1,0,1.18l.82.07a.79.79,0,0,1,.07-.57,7.13,7.13,0,0,1,2.42-3.88c.4-.24.31.31.4.47a3.17,3.17,0,0,0,2,1.8,2.58,2.58,0,0,0,2.54-.83c.31-.57.68-1.4.16-2a1.62,1.62,0,0,0-1.29-.62,1.6,1.6,0,0,0-1.29.88c0,.19,0,.4.14.5s.28,0,.35-.12c0-.36.35-.52.63-.71a.73.73,0,0,1,.75.14,1.24,1.24,0,0,1,.33.92,1.43,1.43,0,0,1-.77,1.11,2.39,2.39,0,0,1-2.26-.21,5.2,5.2,0,0,1-.66-1,1.72,1.72,0,0,1,0-1.09A8,8,0,0,1,47,39.28a2.4,2.4,0,0,1,1.25.78c1.08,1.11-.23,2.7.52,3.93.28,0,.28-.43.4-.66.35-.85-.09-1.78-.3-2.6a4.87,4.87,0,0,0-.89-1.4.6.6,0,0,1,.28,0,5.83,5.83,0,0,1,1.43,1.23,6.36,6.36,0,0,1,.92,3.88c-.19.71-.94,1-1.53,1.3a2.2,2.2,0,0,0-.63.76c.28.17.68,0,1-.12.45-.17.71-.73,1-1,0,0,0,.09,0,.14,0,.26-.12.62.12.69A8.43,8.43,0,0,0,50.82,45a2.36,2.36,0,0,1,.45,1.18c.21.43.56,1,1.13,1.07.14-.21,0-.43-.07-.62-.07-.59-.56-.9-.89-1.33-.82-1.14-.45-2.91-1.08-4.19a5,5,0,0,0-1.27-1.75l.09-.09a13.91,13.91,0,0,1,3.17.57c1.29.64,3.17.5,3.78,2.18a6.21,6.21,0,0,0,1.34,2.56l.07,0a1,1,0,0,0,0-.88c-.14-1.18-1.18-1.47-1.72-2.46l.07-.09a15.91,15.91,0,0,1,1.72.54A5.06,5.06,0,0,1,61,45.89a9.26,9.26,0,0,1-.87,4c-.07.19-.4.4-.19.57.26-.19.31-.5.45-.71A6.59,6.59,0,0,0,61.21,45c0-.31-.38-.54-.21-.85a.75.75,0,0,0,.4.21c.14-.09.35-.09.45-.26s.12-.31,0-.43a.65.65,0,0,0-.68-.16,1.13,1.13,0,0,0-.28.52A4.88,4.88,0,0,0,60,42.81l0-.07c1.06.35,2,.88,3.1,1.16a1.54,1.54,0,0,0,.82.26,23.58,23.58,0,0,0,2.89.73c.7-.07,1.29.26,2,.09v0l0,0c-.26-.33-.82,0-1.13-.26a17.73,17.73,0,0,1-4.63-1.16c0-.07.12,0,.19,0a.61.61,0,0,0,.38-.59.64.64,0,0,0-.54-.26.66.66,0,0,0-.35.4.59.59,0,0,0,.35.45s-.14,0-.21,0c-.73-.33-1.43-.64-2.14-1-.26,0-.47-.26-.73-.31-.54-.26-1.08-.52-1.62-.73a37.12,37.12,0,0,0-4.77-1.78l-1-.28L50.89,39c-2-.5-4.68-.54-6.42.54-.28-.09-.45.35-.59.07.49-1.3,1.93-1.73,3.22-1.77,9.43-.1,18.26-.17,27.55-.31a3,3,0,0,0,2.7-1.35A2.38,2.38,0,0,0,77.52,34ZM40.15,42.72a2.13,2.13,0,0,0-.26.83l-.09,0c.07-.36-.28-.57-.19-.95-.19-.28-.19-.64-.35-.95s.19-.54.35-.81c.33.14.45.45.68.73s-.16.71-.14,1.09Z" transform="translate(-1.43 -2)"/><path class="cls-2" d="M65.65,41.23c0,.07.14.09.09.21a4.91,4.91,0,0,1-3.15,1c-.09,0-.19.09-.3.07s-.09-.12,0-.17a3.59,3.59,0,0,1,3.41-1.11Z" transform="translate(-1.43 -2)"/><path class="cls-2" d="M61.87,41.6c.09.33-.12.52-.38.64a.67.67,0,0,1-.52-.38c-.07-.19.09-.28.16-.4a.45.45,0,0,1,.73.14Z" transform="translate(-1.43 -2)"/><path class="cls-2" d="M17.19,41.65a.49.49,0,0,1-.12.5.48.48,0,0,1-.42.12c-.16,0-.26-.21-.3-.35a.51.51,0,0,1,.3-.45c.19,0,.4,0,.54.19Z" transform="translate(-1.43 -2)"/><path class="cls-2" d="M13,43.19v.17A1.83,1.83,0,0,1,11.45,43a3.16,3.16,0,0,0-1.25-1.18c0-.07-.14-.17,0-.21,1.17,0,1.88.95,2.77,1.59Z" transform="translate(-1.43 -2)"/><path class="cls-2" d="M69.22,41.63c-.54.8-1,1.8-2,2.15-.16,0-.31.24-.45.07a4.33,4.33,0,0,1,2.09-2.25.77.77,0,0,1,.33,0Z" transform="translate(-1.43 -2)"/><path class="cls-2" d="M18.55,41.91c0,.26-.16.31-.33.45s-.28-.12-.4-.26.12-.33.24-.45a.49.49,0,0,1,.49.26Z" transform="translate(-1.43 -2)"/><path class="cls-2" d="M72.18,42.05c-.21.31-.12.76-.33,1.09-.47.54-.87,1.16-1.62,1.28-.12-.24.16-.47.28-.69a3.39,3.39,0,0,1,1.55-1.82l.12.14Z" transform="translate(-1.43 -2)"/><path class="cls-2" d="M5.69,42.27a.47.47,0,0,1,0,.52.55.55,0,0,1-.54.09A.44.44,0,0,1,5,42.31c.14-.21.56-.33.73,0Z" transform="translate(-1.43 -2)"/><path class="cls-2" d="M4.35,42.55c0,.12.09.21.07.33a.55.55,0,0,1-.33.28.49.49,0,0,1-.54-.31.46.46,0,0,1,.23-.5.48.48,0,0,1,.56.19Z" transform="translate(-1.43 -2)"/><path class="cls-2" d="M7.13,42.69c0,.19.09.52-.19.57s-.52-.09-.71-.28a.54.54,0,0,1,.28-.47.65.65,0,0,1,.61.19Z" transform="translate(-1.43 -2)"/><path class="cls-2" d="M11,43c0,.17,0,.4-.16.45s-.33.07-.45,0-.31-.26-.16-.43a.88.88,0,0,1,.33-.26c.14.07.35,0,.45.19Z" transform="translate(-1.43 -2)"/><path class="cls-2" d="M74.44,43.17c-.07.17-.16.38-.35.38s-.42,0-.54-.26.12-.4.31-.47.54.09.59.35Z" transform="translate(-1.43 -2)"/><path class="cls-2" d="M70.14,43.28c0,.19-.19.33-.28.4a.57.57,0,0,1-.73-.36.61.61,0,0,1,.4-.43.62.62,0,0,1,.61.38Z" transform="translate(-1.43 -2)"/><path class="cls-2" d="M73.05,43.24a.49.49,0,0,1-.21.4.54.54,0,0,1-.56-.09c-.21-.19,0-.36.09-.5s.61-.09.68.19Z" transform="translate(-1.43 -2)"/><path class="cls-2" d="M5.08,43.64a.5.5,0,0,1-.28.59.54.54,0,0,1-.52-.33.44.44,0,0,1,.23-.5.54.54,0,0,1,.56.24Z" transform="translate(-1.43 -2)"/><path class="cls-2" d="M69,43.9a.52.52,0,0,1-.33.62c-.19,0-.31,0-.45-.17s-.21-.38,0-.5a.46.46,0,0,1,.8,0Z" transform="translate(-1.43 -2)"/><path class="cls-2" d="M17.73,44.16c.09.26-.19.31-.26.45s-.28.07-.35,0-.26-.28-.19-.5.16-.19.31-.24.35.17.49.31Z" transform="translate(-1.43 -2)"/><path class="cls-2" d="M74,44.33c0,.17-.09.24-.12.35a.63.63,0,0,1-.54.1c-.21-.12-.21-.31-.21-.52s.16-.21.33-.26a.54.54,0,0,1,.54.33Z" transform="translate(-1.43 -2)"/><path class="cls-2" d="M72.56,44.4c.09.28-.16.43-.35.5s-.23,0-.26.09a6.21,6.21,0,0,1,1.46,1.25v.19a3.18,3.18,0,0,1-2.33-.9c-.16-.12-.45-.12-.63-.28.31-.31.87-.19,1.29-.21.31-.33-.35-.57,0-.85.14,0,.23-.17.42-.12a.8.8,0,0,1,.35.33Z" transform="translate(-1.43 -2)"/><path class="cls-2" d="M62.95,44.42c0,.12-.09.26-.12.38a.47.47,0,0,1-.52.09c-.12-.17-.31-.31-.24-.54a.49.49,0,0,1,.87.07Z" transform="translate(-1.43 -2)"/><path class="cls-2" d="M10.39,45.25c-.07.21-.16.35-.4.38a.46.46,0,0,1-.42-.28c0-.17.09-.26.12-.38.26-.21.73-.07.7.28Z" transform="translate(-1.43 -2)"/><path class="cls-2" d="M12.3,44.94c0,.33-.35.52-.47.85a2.4,2.4,0,0,1-1.88,1.56c-.09-.21.31-.47.4-.69a4.89,4.89,0,0,1,1.81-1.73Z" transform="translate(-1.43 -2)"/><path class="cls-2" d="M62.38,45.27c0,.26-.21.45-.4.54s-.38-.09-.49-.19-.07-.38,0-.57c.28-.28.68,0,.87.21Z" transform="translate(-1.43 -2)"/><path class="cls-2" d="M63.84,45.44a.58.58,0,0,1-.42.52c0-.07-.16,0-.23,0a.52.52,0,0,1-.31-.43c.12-.12.16-.31.33-.33s.56,0,.63.28Z" transform="translate(-1.43 -2)"/><path class="cls-2" d="M15.94,45.42a.51.51,0,0,1-.35.5.46.46,0,0,1-.45-.28c0-.21.16-.35.28-.47.28-.09.35.12.52.26Z" transform="translate(-1.43 -2)"/><path class="cls-2" d="M17.56,45.51a.56.56,0,0,1-.45.4c-.16,0-.35-.09-.42-.28s.16-.35.33-.47a.5.5,0,0,1,.54.35Z" transform="translate(-1.43 -2)"/><path class="cls-2" d="M68.89,47.17c.12.09.33.21.28.38-.38.17-.68-.26-1-.33a4.85,4.85,0,0,1-1.22-1.89c.21-.21.45,0,.63.12a4.64,4.64,0,0,1,1.34,1.73Z" transform="translate(-1.43 -2)"/><path class="cls-2" d="M69.76,45.51a.59.59,0,0,1,0,.52c-.14.24-.45.19-.66.14s-.33-.33-.19-.54.28-.24.45-.31.28.12.45.19Z" transform="translate(-1.43 -2)"/><path class="cls-2" d="M19.72,46.13c0,.19.07.47-.16.59a.46.46,0,0,1-.56-.28c-.12-.28.14-.33.28-.47s.3,0,.45.17Z" transform="translate(-1.43 -2)"/><path class="cls-2" d="M63.77,47.66a3.46,3.46,0,0,1,.61,1.68c-.07.17.12.33,0,.45h-.09a5.3,5.3,0,0,1-1.69-2.89.19.19,0,0,1-.09-.24c.23-.21.4.21.63.28l.66.71Z" transform="translate(-1.43 -2)"/><path class="cls-2" d="M22.78,46.86s0,0,0,0a3.13,3.13,0,0,1-3.34.43.18.18,0,0,1,.12-.21,4.86,4.86,0,0,1,2.07-.45l1.13.19Z" transform="translate(-1.43 -2)"/><path class="cls-2" d="M17.42,47c-.8.5-1.53,1.47-2.51,1.7-.19.07-.3.33-.54.19a3.47,3.47,0,0,1,3.05-2.08V47Z" transform="translate(-1.43 -2)"/><path class="cls-2" d="M62.38,48c.07.19,0,.45-.19.5a.32.32,0,0,1-.45,0c-.21-.09-.21-.31-.21-.47s.23-.19.35-.26.38,0,.49.24Z" transform="translate(-1.43 -2)"/><path class="cls-2" d="M60.43,48.16a1.32,1.32,0,0,1-.85.62,3.6,3.6,0,0,1-2.23-.28c0-.19.26-.12.38-.24a5.12,5.12,0,0,1,2.4-.12.25.25,0,0,1,.31,0Z" transform="translate(-1.43 -2)"/><path class="cls-2" d="M17.42,48.85c-.07.09-.09.31-.28.38a.49.49,0,0,1-.47-.09c0-.14-.21-.26-.09-.43s.23-.21.38-.26a.5.5,0,0,1,.47.4Z" transform="translate(-1.43 -2)"/><path class="cls-2" d="M18.81,49.06a.87.87,0,0,1-.33.45.52.52,0,0,1-.47-.17.56.56,0,0,1-.07-.47c0-.12.21-.14.33-.21s.45.21.54.4Z" transform="translate(-1.43 -2)"/><path class="cls-2" d="M61.94,49.3a.63.63,0,0,1-.16.45.4.4,0,0,1-.52.09c-.16,0-.21-.21-.28-.33s.09-.31.16-.47a.51.51,0,0,1,.8.26Z" transform="translate(-1.43 -2)"/><path class="cls-2" d="M63,49.25c0,.12.09.24,0,.33s-.24.43-.52.31c-.14,0-.21-.14-.28-.19a.45.45,0,0,1,.28-.64c.21-.07.35.12.47.19Z" transform="translate(-1.43 -2)"/><path class="cls-2" d="M18,49.94a.64.64,0,0,1-.24.64c-.26,0-.59,0-.68-.26a.64.64,0,0,1,.28-.69.57.57,0,0,1,.63.31Z" transform="translate(-1.43 -2)"/><path class="cls-2" d="M19.3,49.84a2.17,2.17,0,0,1-.85,1.85c-.38.07-.75.43-1.13.19v-.12a25.14,25.14,0,0,1,2-1.92Z" transform="translate(-1.43 -2)"/><path class="cls-2" d="M58.25,50.39c.09.14-.07.26-.14.38s-.4.09-.56,0-.19-.31-.12-.47a.48.48,0,0,1,.31-.26c.21,0,.4.17.52.33Z" transform="translate(-1.43 -2)"/><path class="cls-2" d="M21.65,51.48c.33.54.14,1.28.33,1.87-.4,0-.56-.4-.82-.64a7.37,7.37,0,0,1-.68-2.49.12.12,0,0,1,.16,0,6,6,0,0,1,.89,1c0,.17.14.17.12.31Z" transform="translate(-1.43 -2)"/><path class="cls-2" d="M59.42,50.58c0,.19-.21.24-.33.35a.86.86,0,0,1-.45-.21c-.07-.24.12-.31.23-.43a.39.39,0,0,1,.54.28Z" transform="translate(-1.43 -2)"/><path class="cls-2" d="M62.22,52.68c0,.07,0,.21-.14.17H62a2.81,2.81,0,0,1-1.27-2.25l.14,0a3,3,0,0,1,1.36,2.11Z" transform="translate(-1.43 -2)"/><path class="cls-2" d="M60.45,51.93a.55.55,0,0,1-.21.45c-.26.07-.66,0-.71-.31s.24-.36.35-.47a.48.48,0,0,1,.56.33Z" transform="translate(-1.43 -2)"/><path class="cls-2" d="M58.9,52.42c-.33.88-1.22,1.33-1.83,2-.12-.07-.07-.26,0-.36a3.27,3.27,0,0,1,1.81-2.13c.38,0,0,.31.07.5Z" transform="translate(-1.43 -2)"/><path class="cls-2" d="M60.67,53.13c0,.21-.21.31-.33.43a.69.69,0,0,1-.52-.26c0-.24.16-.31.3-.43a.49.49,0,0,1,.54.26Z" transform="translate(-1.43 -2)"/><path class="cls-2" d="M43.18,10.16a.59.59,0,0,1,0,1.17h-7a.59.59,0,0,1,0-1.17Zm-4.93,1c.68,0,0-.83-.33-.83h-.68c-.68,0,0,.83.33.83Zm2.86,0c.68,0,0-.83-.33-.83h-.68c-.68,0,0,.83.33.83Zm2.1-.83H43c-.68,0-.1.83.26.83s.48-.83,0-.83Z" transform="translate(-1.43 -2)"/><path class="cls-2" d="M42.57,18.15l1.33.51,1.31-.51-.52,2,1-.21-.35,1.19.35,1.14L44.81,22l.4,2.11-1.31-.51-1.33.51L43.11,22l-1.06.3.28-1.19L42,19.95l1,.17-.5-2Zm2,3.54c.3,0,.33-.41.33-.77,0-.81-.64,0-1-.76-.24.64-.9,0-.9.74,0,.47,0,.79.47.79ZM43.23,21c0,.31.41.1.72.1s.72.21.72-.1-.41-.29-.72-.29-.72-.15-.72.29Z" transform="translate(-1.43 -2)"/><polygon class="cls-2" points="38.02 19.04 38.02 18.79 37.8 18.75 37.97 18.56 37.86 18.36 38.09 18.39 38.23 18.14 38.37 18.38 38.6 18.36 38.49 18.56 38.66 18.75 38.44 18.79 38.44 19.04 38.23 18.88 38.02 19.04 38.02 19.04"/><polygon class="cls-2" points="36.99 20.37 36.99 20.12 36.76 20.08 36.94 19.89 36.83 19.7 37.06 19.72 37.2 19.48 37.33 19.71 37.56 19.7 37.45 19.89 37.63 20.08 37.41 20.12 37.41 20.37 37.2 20.21 36.99 20.37 36.99 20.37"/><polygon class="cls-2" points="38.74 20.2 38.74 19.95 38.52 19.91 38.69 19.73 38.58 19.52 38.81 19.55 38.95 19.31 39.09 19.55 39.32 19.52 39.21 19.73 39.38 19.91 39.16 19.95 39.16 20.2 38.95 20.04 38.74 20.2 38.74 20.2"/><polygon class="cls-2" points="38.95 21.19 38.95 21.05 38.82 21.03 38.92 20.93 38.86 20.81 38.99 20.82 39.07 20.69 39.14 20.82 39.27 20.81 39.21 20.93 39.31 21.03 39.18 21.05 39.18 21.19 39.07 21.1 38.95 21.19 38.95 21.19"/><polygon class="cls-2" points="37.32 22.33 37.32 21.9 36.94 21.83 37.23 21.52 37.05 21.18 37.44 21.22 37.68 20.8 37.91 21.21 38.31 21.18 38.12 21.52 38.42 21.83 38.04 21.9 38.04 22.33 37.68 22.06 37.32 22.33 37.32 22.33"/><polygon class="cls-2" points="38.15 0 38.98 2.04 41.07 1.42 40.01 3.34 41.79 4.61 39.64 4.97 39.77 7.16 38.15 5.69 36.52 7.16 36.66 4.97 34.5 4.61 36.29 3.34 35.22 1.42 37.32 2.04 38.15 0 38.15 0"/><path class="cls-2" d="M32,47.65c-.25.09-.35.16-.28.42l.3,1.25a1.12,1.12,0,0,1-.08.82,1.52,1.52,0,0,1-.85.51,1.72,1.72,0,0,1-1,0,.74.74,0,0,1-.49-.63l-.31-1.31c-.08-.33-.2-.31-.47-.27l0-.1,1.58-.38,0,.1c-.31.09-.45.12-.37.47l.31,1.31c.05.22.18.76.85.6a.76.76,0,0,0,.63-1l-.28-1.19c-.06-.24-.14-.36-.55-.28l0-.1,1-.25,0,.1Z" transform="translate(-1.43 -2)"/><path class="cls-2" d="M34.33,47.91a1,1,0,0,0-1.08-.52c-.24.05-.47.23-.42.48s.15.28.58.36l.75.13a.83.83,0,0,1,.67.61c.08.35-.12.89-1,1.08a4.15,4.15,0,0,1-.83,0c-.1,0-.11.1-.11.17l-.14,0-.21-1,.13,0a1,1,0,0,0,1.14.63c.56-.13.5-.52.49-.57-.06-.26-.3-.31-.63-.36l-.34-.06c-.87-.14-.95-.48-1-.66s0-.81.86-1a4.21,4.21,0,0,1,.76,0c.11,0,.12-.09.12-.17l.14,0,.19.85-.13,0Z" transform="translate(-1.43 -2)"/><path class="cls-2" d="M37.43,49.46l-1.7.16v-.1c.35-.06.46-.08.43-.41L35.94,47c-.33,0-.82.12-.86.77h-.14L34.89,47l2.86-.28.09.8H37.7c-.16-.63-.65-.61-1-.59l.2,2.11c0,.34.15.34.5.32v.1Z" transform="translate(-1.43 -2)"/><path class="cls-2" d="M41.42,49.46l-1,0-1-1.28h-.13l0,.79c0,.32.1.34.41.38v.1l-1.62,0v-.1c.33,0,.42,0,.43-.36l0-1.78c0-.35-.14-.36-.41-.38v-.1l1.54,0c.34,0,1.35.06,1.34.73,0,.49-.51.61-.77.67l.94,1.17a.24.24,0,0,0,.19.08v.1ZM39.34,48c.63,0,.88-.08.89-.6a.51.51,0,0,0-.57-.59c-.26,0-.27,0-.3.16l0,1Z" transform="translate(-1.43 -2)"/><path class="cls-2" d="M44.56,49.87,43,49.67v-.1c.3,0,.38,0,.4-.11a2,2,0,0,0-.15-.56l-1.07-.13a2.38,2.38,0,0,0-.27.49c0,.15.21.19.37.22v.1l-1-.12v-.1c.26,0,.34-.13.52-.41l1.33-2.06.13,0,.8,2.23c.16.45.22.6.45.62v.1Zm-1.33-1.12-.36-1-.57.91.93.12Z" transform="translate(-1.43 -2)"/><path class="cls-2" d="M47.35,50.43l-2.73-.5,0-.1c.27,0,.41,0,.46-.21l.35-1.92c0-.26-.14-.3-.35-.36l0-.1,1.65.3,0,.1c-.33,0-.48-.07-.54.28l-.34,1.87c0,.19.06.24.38.3a1.18,1.18,0,0,0,1.33-.56l.14,0-.36.86Z" transform="translate(-1.43 -2)"/><path class="cls-2" d="M49.16,50.84l-1.64-.35,0-.1c.26,0,.44.06.49-.19l.39-1.91c.05-.26-.17-.31-.38-.37l0-.1,1.64.34,0,.1c-.22,0-.45-.08-.5.19l-.39,1.9c-.05.25.13.3.39.37l0,.1Z" transform="translate(-1.43 -2)"/><path class="cls-2" d="M52.5,51.27l-1.55-.16V51c.3,0,.38,0,.4-.12a2.09,2.09,0,0,0-.16-.56l-1.07-.11a2.3,2.3,0,0,0-.26.49c0,.15.21.19.37.21V51l-1-.1v-.1c.26,0,.34-.13.51-.42l1.28-2.08h.13L52,50.56c.17.45.23.59.46.61v.1Zm-1.36-1.1-.38-1-.55.93.93.1Z" transform="translate(-1.43 -2)"/><path class="cls-2" d="M40.24,18.8c0-1-.54-.06-.84-.88-.22.69-.87.11-.87.86a.59.59,0,0,0,.21.54v.29a.13.13,0,0,0,.13.13h1a.13.13,0,0,0,.13-.13V19.3a.63.63,0,0,0,.21-.49ZM39.4,19c-.28,0-.66.19-.66-.14s.32-.37.6-.37.72-.11.72.37-.38.14-.66.14Z" transform="translate(-1.43 -2)"/><path class="cls-2" d="M48.65,30.66a.39.39,0,1,0-.44-.39.42.42,0,0,0,.44.39Z" transform="translate(-1.43 -2)"/><path class="cls-2" d="M46.56,16.35a2.44,2.44,0,0,0-.21.42.21.21,0,1,0,.42,0l-.21-.42Z" transform="translate(-1.43 -2)"/><path class="cls-2" d="M32.37,16.35a2.44,2.44,0,0,0-.21.42.21.21,0,1,0,.42,0l-.21-.42Z" transform="translate(-1.43 -2)"/><path class="cls-2" d="M35.92,16.35a2.44,2.44,0,0,0-.21.42.21.21,0,1,0,.42,0l-.21-.42Z" transform="translate(-1.43 -2)"/><path class="cls-2" d="M39.47,16.35a2.44,2.44,0,0,0-.21.42.21.21,0,1,0,.42,0l-.21-.42Z" transform="translate(-1.43 -2)"/><path class="cls-2" d="M43,16.35a2.44,2.44,0,0,0-.21.42.21.21,0,1,0,.42,0L43,16.35Z" transform="translate(-1.43 -2)"/><path class="cls-2" d="M32.38,21.22a2.44,2.44,0,0,1,.21.42.21.21,0,1,1-.42,0l.21-.42Z" transform="translate(-1.43 -2)"/><path class="cls-2" d="M32.38,26a2.45,2.45,0,0,1,.21.42.21.21,0,1,1-.42,0l.21-.42Z" transform="translate(-1.43 -2)"/><path class="cls-2" d="M32.94,29.7a2.44,2.44,0,0,1,.21.42.21.21,0,1,1-.42,0l.21-.42Z" transform="translate(-1.43 -2)"/><path class="cls-2" d="M35.92,31.7a2.44,2.44,0,0,1,.21.42.21.21,0,1,1-.42,0l.21-.42Z" transform="translate(-1.43 -2)"/><path class="cls-2" d="M46.74,21.22a2.44,2.44,0,0,0-.21.42.21.21,0,1,0,.42,0l-.21-.42Z" transform="translate(-1.43 -2)"/><path class="cls-2" d="M46.74,26a2.46,2.46,0,0,0-.21.42.21.21,0,1,0,.42,0L46.74,26Z" transform="translate(-1.43 -2)"/><path class="cls-2" d="M46.18,29.7a2.44,2.44,0,0,0-.21.42.21.21,0,1,0,.42,0l-.21-.42Z" transform="translate(-1.43 -2)"/><path class="cls-2" d="M43.2,31.7a2.45,2.45,0,0,0-.21.42.21.21,0,1,0,.42,0l-.21-.42Z" transform="translate(-1.43 -2)"/><path class="cls-2" d="M39.58,33.81a2.44,2.44,0,0,0-.21.42.21.21,0,1,0,.42,0l-.21-.42Z" transform="translate(-1.43 -2)"/><path class="cls-2" d="M45.35,26.74c0,.07.16.09.3,0l.13-.38s-.15-.18-.25-.15c-.38.09-.78.14-1,.5a.74.74,0,0,0,.36.58c.13,0,.16.09.25.16a.16.16,0,0,1-.16.2c-.27-.27-.74.09-.94-.25.09-.34.27-.72,0-1,0-.07.13-.13.07-.2-.11-.31-.45-.07-.65-.07a.85.85,0,0,0-.8.4.62.62,0,0,0,.18.34c.09,0,.13,0,.16.09l-.22.13a.48.48,0,0,1,.09.25c-.16.07-.31-.16-.38-.27s0-.49-.22-.54a1,1,0,0,0-.19.07.65.65,0,0,0-.09.37,1.53,1.53,0,0,0,.09.4,3.87,3.87,0,0,1,.84.82c-.2.4-.2,1-.67,1.19a.37.37,0,0,0-.13.36l.11.09c.29-.16.85-.2.8-.7a1.78,1.78,0,0,1,.42-.58.46.46,0,0,1,.51.25.88.88,0,0,1-.6.67s0,.11,0,.18.33.09.47.07c.38-.25.54-.7.87-.83,0,.22-.45.29-.13.52.2,0,.47,0,.6-.25-.16-.38.54-.56.11-.9,0-.34.36-.47.33-.83s-.56-.36-.67-.7a.49.49,0,0,1,.47,0Z" transform="translate(-1.43 -2)"/><path class="cls-2" d="M29,30.84a.39.39,0,1,0-.44-.39.42.42,0,0,0,.44.39Z" transform="translate(-1.43 -2)"/><path class="cls-2" d="M6,44.28a.42.42,0,1,0-.44-.42.43.43,0,0,0,.44.42Z" transform="translate(-1.43 -2)"/><path class="cls-2" d="M20.67,47.55h0l0,0h0v0h0v-.05h0s0,0,0,0,0,0,0,0l0,0h0Zm-.06,0s0,0,0,0a0,0,0,0,0,0,0h0v0Z" transform="translate(-1.43 -2)"/><path class="cls-2" d="M20.74,47.49a0,0,0,0,0,0,0h0a0,0,0,0,1,0,0s0,0,0,0h0v0h0a0,0,0,0,0,0,0s0,0,0,0h0s0,0,0,0,0,0,0,0h0v0Z" transform="translate(-1.43 -2)"/><path class="cls-2" d="M20.88,47.47h0l0,.07h0l0-.05h0l0,.05h0l0-.07h0l0,0h0l0,0h0v0h0l0,0h0Z" transform="translate(-1.43 -2)"/><path class="cls-2" d="M20.89,47.55a0,0,0,0,0,0,0h0a0,0,0,0,1,0,0,0,0,0,0,1,0,0,0,0,0,0,1,0,0s0,0-.06,0Zm0,0h0s0,0,0,0,0,0,0,0,0,0,0,0Z" transform="translate(-1.43 -2)"/><path class="cls-2" d="M21,47.49h0a0,0,0,0,1,0,0s0,0,0,0h0l0,0h0v0h0Z" transform="translate(-1.43 -2)"/><path class="cls-2" d="M47.74,15.79H31.36V28.3A3,3,0,0,0,32.66,31L39,35A.76.76,0,0,0,40,35.1L46.44,31a3,3,0,0,0,1.29-2.74V15.79Zm-.46,12.68a2.81,2.81,0,0,1-1.06,2.18L40,34.58h0a.76.76,0,0,1-1,0l-6.16-3.92a2.81,2.81,0,0,1-1.06-2.18V16.23H47.28V28.47Z" transform="translate(-1.43 -2)"/><path class="cls-2" d="M41.76,34l.2-.1-.2.1Z" transform="translate(-1.43 -2)"/><path class="cls-2" d="M29.4,51.14l-1.54.18v-.1c.29-.05.38-.07.36-.2a2,2,0,0,0-.28-.51l-1.07.12a2.31,2.31,0,0,0-.15.54c0,.15.25.14.41.13v.1l-1,.11v-.1c.25-.06.3-.21.41-.52l.8-2.31.13,0,1.3,2c.26.4.36.53.58.5v.1Zm-1.56-.77-.59-.91-.34,1,.93-.11Z" transform="translate(-1.43 -2)"/><path class="cls-2" d="M56.53,45.27a2.47,2.47,0,0,0-1.6-1.47,2.06,2.06,0,0,0-2,.52c-.85.69-.26,1.82-.23,2.75,0,.19,0,.33-.16.43-3.41-.31-6.58-1.16-10-1.51-.78-.13-1.56-.1-2.3-.26l-.95-.1a39.84,39.84,0,0,0-8.63,1c-.59.19-1.25.24-1.83.45-.42-.07-.78.24-1.17.12l-.77.18a.65.65,0,0,1-.26,0c-.38-1,.75-1.56.4-2.51a1.72,1.72,0,0,0-1.62-1,2,2,0,0,0-1.88,1c-.54,1.18.14,2.41.35,3.57,0,.38.38.8,0,1.11A3.22,3.22,0,0,0,21.2,49c-.28.14-.8,0-.94.28a6.73,6.73,0,0,0,3.43.43c.14,0,.23-.07.35,0,.09.62-.12,1.44.26,2a2.42,2.42,0,0,0,1.81.78,28.09,28.09,0,0,0,6.06-1.21c.31,0,.54-.19.87-.19a17.17,17.17,0,0,1,3.34-.45,5.89,5.89,0,0,0-1,2.13c-.28.64.49.73.73,1.09a18.51,18.51,0,0,0-1.93,1c-1.5,0-2.77.52-4.18.69,0,.31.49.21.54.52s-.28.24-.45.35,0,.17.14.19c.14-.17.45,0,.59-.21.47,0,.87-.14,1.32-.17a4.39,4.39,0,0,0,1.2-.47c.49-.14.8-.47,1.29-.62.7,0,1.34-.24,2-.28V55c-.54.88-1.1,1.78-1.67,2.6a.27.27,0,0,0,.16.38,1.22,1.22,0,0,0,.92-.14c.49-.85.94-1.66,1.34-2.53a3.43,3.43,0,0,1,1.34-1.78c.09,0,.23-.19.33,0a10.79,10.79,0,0,0-1.13,1.66,2,2,0,0,0,.35,2.06c.28.24.7.17,1.08.19.92-.47,2.09.28,2.8-.62.42-.07.49.43.73.66.4.12.82.52,1.22.24,0-.26-.31-.5-.45-.73-.28-.5-.63-.9-.89-1.35a4.71,4.71,0,0,1-.38-.88,7.43,7.43,0,0,0,1.27.5,7.83,7.83,0,0,1,1.27.38,4.32,4.32,0,0,0,1.17.9c.59.28,1.25.33,1.86.57.24,0,.59.21.75,0a1,1,0,0,0-.35-.26c-.07-.31.42-.14.59-.38a.33.33,0,0,0-.27-.18c-.34-.18-1.17-.24-1.4-.37a5.5,5.5,0,0,1-.82-.26c-1.41,0-2.19-1.28-3.31-1.75.26-.24.66-.43.82-.78A1.32,1.32,0,0,0,44,51.81c-.21-.73-1.15-.64-1.69-1l.07-.07A9.83,9.83,0,0,1,45,51c2.26.31,4.35,1.16,6.7,1.21,1.29,0,2.91.07,3.55-1.18.12-.73.26-1.47.38-2.2.28-1.18,1.06-2.27.94-3.57ZM31.15,56.07l-.33-.31c.16-.21.52-.1.77-.24a4.08,4.08,0,0,1,2-.28,5.68,5.68,0,0,1-2.44.83Zm14.67-.38a10.26,10.26,0,0,0,2.51.59c-.07.32-.65,0-.58.47a5.47,5.47,0,0,1-2.12-1s.09-.09.19-.07ZM23.77,45.63a1.71,1.71,0,0,1,.56-1.18,2,2,0,0,1,1.86.07.91.91,0,0,1,.38.45A1.06,1.06,0,0,1,26.21,46H26A2.61,2.61,0,0,1,26.12,45c0-.28-.26-.31-.45-.43a1.37,1.37,0,0,0-1.06.24,1.07,1.07,0,0,0-.3,1c.16.26,0,.62.12.9l-.07.09a1.46,1.46,0,0,1-.59-1.18Zm1.1.68c.35.26.85.14,1.27.21a.89.89,0,0,1-.12.81c-.4-.09-.92,0-1.13-.43,0-.17-.07-.4,0-.59Zm-.07-.8c.07-.19,0-.47.26-.52s.42,0,.45.14a4.68,4.68,0,0,1-.12.83.54.54,0,0,1-.59-.45Zm11,7.6A2.57,2.57,0,0,1,36.58,51a1.36,1.36,0,0,1,1,0c-.61.17-1.39.31-1.53,1.09,0,.31-.07.47.07.73.26.45.85.26,1.18.62a.3.3,0,0,1-.21.28,9.08,9.08,0,0,1-1.27-.64ZM35,54.74c.56-.24,1.15-.73,1.79-.52a3.23,3.23,0,0,1-1.79.52Zm2.23.24a18.15,18.15,0,0,1-1.15,2.22c0,.12-.24.14-.38.17,0-.33.33-.59.47-.88.49-.64.63-1.33,1.2-1.94.14.14-.14.24-.14.43Zm.59-1.37v.09h0v-.12h.09a.14.14,0,0,0-.09,0ZM37.59,53a5.61,5.61,0,0,1-1.13-.28c-.24-.24,0-.5,0-.76a1.2,1.2,0,0,1,1.72-.31A2.52,2.52,0,0,1,37.59,53Zm.52,0a4,4,0,0,1,.38-1,2,2,0,0,1-.38,1ZM38.36,51c-.31-.07-.47-.43-.8-.43a1.88,1.88,0,0,1,.89,0c.12.17-.07.31-.09.45Zm.28.71h0V51.5h0v.26Zm0,1.09c0-.09,0-.21.07-.33s.23.09.28.17a.35.35,0,0,1-.35.17ZM39,51.38a2.63,2.63,0,0,1,.35-.88,1.38,1.38,0,0,1,.63.09c0,.47.63,1.11,0,1.52-.21.09-.52.31-.75.09a.66.66,0,0,1-.23-.83Zm1.72-.66c0-.21.21,0,.31-.14l.73,0c-.38,0-.85.83-1,.09Zm1.18.31c-.28.09-.49.43-.78.5a1,1,0,0,1,.78-.5Zm-1,1.47v.07h0v-.07Zm0,1.44s0,.12,0,.17l-.54-.43a.57.57,0,0,1,.59.26Zm-.63-.73a.18.18,0,0,1,.21,0ZM40,52.85c.09-.14.21-.35.38-.35,0,0,0,0,0,.07a1.21,1.21,0,0,1-.42.28Zm-.54,0h-.09l.14-.14c.07,0,0,.09,0,.14Zm.07.9c.31-.33.59.19.71.45.35.52,1.27,1,.92,1.7-.45.4-1.15,0-1.65.33-.26,0-.71,0-.85-.21a13.81,13.81,0,0,1,.87-2.27Zm-.66.45L39,54a10,10,0,0,1-.78,1.7c-.14-.57.45-1,.66-1.52Zm1,2.82c-.45,0-1.13.28-1.55-.09,0-.19-.19-.28-.16-.47.38-.14.7.31,1.06,0a9.57,9.57,0,0,1,1.64,0c.26.07.66-.43.7.07-.19.78-1.13.24-1.69.47Zm1.36-3.41v-.07h0v.07Zm.14,1.49c0,.24.26.33.12.54a.72.72,0,0,1-.12-.54Zm.66,1.42-.12,0c-.12-.09-.07-.36,0-.5.14.12.26.28.16.45Zm1.18.57c0,.07-.14.07-.19,0a12.58,12.58,0,0,1-1.48-2.84l.09,0c.56.92,1,1.94,1.57,2.84Zm.87-2.18a.1.1,0,0,0,0,.09,2.69,2.69,0,0,1-1.64-.73l0-.12a4.45,4.45,0,0,1,1.72.76Zm-.61-3.15c.28.07.31.38.33.62a1.4,1.4,0,0,1-1.72,1.26,1.5,1.5,0,0,0,1.41-.81l0-1.07ZM43,51.62a1.59,1.59,0,0,1,.21,1c-.23.45-.7.45-1.13.54a.74.74,0,0,1-.54-.17.24.24,0,0,0-.09-.24c.07-.31-.54-.62-.12-.88s1.27-1.16,1.67-.31Zm11.94-1.73c-.19.24,0,.61-.26.83,0,.43-.35.64-.66.81-2.8.62-5.55-.33-8.25-.81a28.75,28.75,0,0,0-12.06-.19c-1.81.33-3.57.76-5.31,1.26a7.72,7.72,0,0,1-3.29,0c-.85-.4-.49-1.49-.75-2.25a12.38,12.38,0,0,0-.19-1.63,1.4,1.4,0,0,1-.09-.62c.35,0,.7.31,1.08.4,2,.38,3.74-.26,5.57-.59a40.6,40.6,0,0,1,5.43-.83,34.77,34.77,0,0,1,6.3.21c.66,0,1.22.19,1.86.24,1.32.17,2.54.52,3.88.62a6.43,6.43,0,0,0,.71.12c2.11.33,4.49.92,6.51,0a17.46,17.46,0,0,1-.47,2.46ZM54.27,47c0,.38-.33.28-.52.43h-.56a1.29,1.29,0,0,1-.07-.66,4.72,4.72,0,0,1,1.15.24ZM54,46.41c.26-.26-.07-1.75.66-.78,0,.19,0,.47-.16.62s-.31.28-.49.17Zm1.9-.24a1.35,1.35,0,0,1-1,.81c0-.57.54-1,.35-1.61a1.42,1.42,0,0,0-1.48-.47c-.21.14-.12.38-.19.59l-.09.78c-.47,0-.49-.43-.63-.76a1.37,1.37,0,0,1,.73-1.23,1.62,1.62,0,0,1,1.36,0,1.06,1.06,0,0,1,.78.5c.35.33.26.92.19,1.35Z" transform="translate(-1.43 -2)"/><line class="cls-4" x1="83.43" y1="35.35" x2="250.69" y2="35.35"/><path class="cls-1" d="M90.59,51H87.27l-.4.92a2,2,0,0,0-.19.76.63.63,0,0,0,.32.58,2.68,2.68,0,0,0,.92.17v.26H84.79v-.26a1.41,1.41,0,0,0,.83-.42,5.67,5.67,0,0,0,.81-1.42L89.8,44h.13l3.4,7.72a4.69,4.69,0,0,0,.8,1.38,1.09,1.09,0,0,0,.67.25v.26H90.23v-.26h.19a1.43,1.43,0,0,0,.77-.15.37.37,0,0,0,.15-.32.85.85,0,0,0,0-.26s-.08-.22-.21-.52L90.59,51Zm-.24-.51L89,47.2l-1.44,3.24Z" transform="translate(-1.43 -2)"/><path class="cls-2" d="M100.77,47.14v5.08a1.89,1.89,0,0,0,.14.93.81.81,0,0,0,.56.23v.25H98.83v-.87a3.4,3.4,0,0,1-.93.81,2.17,2.17,0,0,1-1,.25,1.56,1.56,0,0,1-1-.33,1.67,1.67,0,0,1-.57-.79,5.81,5.81,0,0,1-.15-1.58V48.55a1.82,1.82,0,0,0-.14-.92.81.81,0,0,0-.56-.24v-.26h2.65v4.44a3.89,3.89,0,0,0,.06.9.62.62,0,0,0,.21.31.56.56,0,0,0,.33.1.8.8,0,0,0,.45-.13,2.87,2.87,0,0,0,.67-.73V48.55a1.82,1.82,0,0,0-.14-.92.81.81,0,0,0-.56-.24v-.26Z" transform="translate(-1.43 -2)"/><path class="cls-2" d="M106.23,47l.1,2.22h-.24a3.46,3.46,0,0,0-.88-1.35,1.45,1.45,0,0,0-.9-.36.67.67,0,0,0-.49.19.58.58,0,0,0-.2.44.57.57,0,0,0,.14.36,6.7,6.7,0,0,0,1.24,1,5,5,0,0,1,1.34,1.17,1.87,1.87,0,0,1,.33,1.08,2.28,2.28,0,0,1-.27,1.06,1.9,1.9,0,0,1-.76.8,2.18,2.18,0,0,1-1.09.28,3.78,3.78,0,0,1-1.24-.29,1.05,1.05,0,0,0-.28-.08q-.23,0-.38.35h-.23l-.11-2.33h.24a3,3,0,0,0,.85,1.37,1.66,1.66,0,0,0,1,.46.75.75,0,0,0,.54-.2.67.67,0,0,0,.22-.5A.86.86,0,0,0,105,52a5.45,5.45,0,0,0-.93-.74,7.29,7.29,0,0,1-1.37-1.12,2,2,0,0,1-.46-1.26,2,2,0,0,1,.51-1.35,1.86,1.86,0,0,1,1.5-.61,2.18,2.18,0,0,1,1,.26.68.68,0,0,0,.31.1.37.37,0,0,0,.2,0A1.44,1.44,0,0,0,106,47Z" transform="translate(-1.43 -2)"/><path class="cls-2" d="M110,44.77v2.37h1.54v.69H110v4a3.31,3.31,0,0,0,0,.73.56.56,0,0,0,.19.26.42.42,0,0,0,.24.1q.45,0,.85-.69l.21.15a1.9,1.9,0,0,1-1.83,1.33,1.64,1.64,0,0,1-1-.34,1.54,1.54,0,0,1-.54-.77,6.53,6.53,0,0,1-.07-1.28V47.83h-.85v-.24a8.84,8.84,0,0,0,1.49-1.3,7.84,7.84,0,0,0,1.08-1.52Z" transform="translate(-1.43 -2)"/><path class="cls-2" d="M114.81,47.14v1.47a4.69,4.69,0,0,1,1.13-1.33,1.67,1.67,0,0,1,.94-.33.81.81,0,0,1,.62.24.91.91,0,0,1,.24.67,1,1,0,0,1-.23.72.69.69,0,0,1-.54.26.94.94,0,0,1-.64-.24l-.32-.26a.3.3,0,0,0-.16,0,.58.58,0,0,0-.38.15,1.44,1.44,0,0,0-.43.67,4.72,4.72,0,0,0-.22,1.49V52.5a1.59,1.59,0,0,0,0,.51.57.57,0,0,0,.24.28,1.52,1.52,0,0,0,.56.1v.25h-3.51v-.25a.76.76,0,0,0,.57-.23,2.14,2.14,0,0,0,.15-1V48.52a2.7,2.7,0,0,0-.06-.71.56.56,0,0,0-.2-.28,1.08,1.08,0,0,0-.47-.12v-.26Z" transform="translate(-1.43 -2)"/><path class="cls-1" d="M121.58,52.68a3.42,3.42,0,0,1-2.13,1,1.26,1.26,0,0,1-.92-.36,1.24,1.24,0,0,1-.37-.92,1.78,1.78,0,0,1,.64-1.33,12,12,0,0,1,2.78-1.58v-.65a3,3,0,0,0-.08-.92.7.7,0,0,0-.3-.33.89.89,0,0,0-.5-.15,1.28,1.28,0,0,0-.74.2.36.36,0,0,0-.18.29.6.6,0,0,0,.19.36.89.89,0,0,1,.26.58.77.77,0,0,1-.26.58.92.92,0,0,1-.66.24,1.07,1.07,0,0,1-.74-.26.81.81,0,0,1-.29-.62,1.43,1.43,0,0,1,.4-1,2.49,2.49,0,0,1,1.1-.7,4.51,4.51,0,0,1,1.47-.24,2.4,2.4,0,0,1,1.46.4,1.82,1.82,0,0,1,.7.85,5.54,5.54,0,0,1,.1,1.34v2.52a2.66,2.66,0,0,0,0,.56.33.33,0,0,0,.1.17.25.25,0,0,0,.16.06q.18,0,.37-.26l.21.17a2.55,2.55,0,0,1-.72.75,1.56,1.56,0,0,1-.84.23,1.33,1.33,0,0,1-.87-.26,1.19,1.19,0,0,1-.38-.79Zm0-.51V50a4.06,4.06,0,0,0-1.25,1.06,1.28,1.28,0,0,0-.27.76.79.79,0,0,0,.23.56.63.63,0,0,0,.49.19,1.33,1.33,0,0,0,.81-.39Z" transform="translate(-1.43 -2)"/><path class="cls-2" d="M127.37,44.22v8.07a1.57,1.57,0,0,0,.16.88.88.88,0,0,0,.62.22v.25h-3.51v-.25a.85.85,0,0,0,.64-.25,1.55,1.55,0,0,0,.14-.85V45.57a1.51,1.51,0,0,0-.16-.87.85.85,0,0,0-.62-.22v-.26Z" transform="translate(-1.43 -2)"/><path class="cls-1" d="M130.48,44a1.08,1.08,0,1,1-.76.32,1,1,0,0,1,.76-.32Zm1,3.15v5.15a1.57,1.57,0,0,0,.16.88.88.88,0,0,0,.62.22v.25h-3.51v-.25a.85.85,0,0,0,.64-.25,1.55,1.55,0,0,0,.14-.85V48.5a1.53,1.53,0,0,0-.16-.87.85.85,0,0,0-.62-.22v-.26Z" transform="translate(-1.43 -2)"/><path class="cls-1" d="M136.31,52.68a3.42,3.42,0,0,1-2.13,1,1.26,1.26,0,0,1-.92-.36,1.24,1.24,0,0,1-.37-.92,1.78,1.78,0,0,1,.64-1.33,12,12,0,0,1,2.78-1.58v-.65a3,3,0,0,0-.08-.92.7.7,0,0,0-.3-.33.89.89,0,0,0-.5-.15,1.28,1.28,0,0,0-.74.2.35.35,0,0,0-.18.29.61.61,0,0,0,.19.36.89.89,0,0,1,.26.58.77.77,0,0,1-.26.58.92.92,0,0,1-.66.24,1.07,1.07,0,0,1-.74-.26.81.81,0,0,1-.29-.62,1.43,1.43,0,0,1,.4-1,2.49,2.49,0,0,1,1.1-.7,4.51,4.51,0,0,1,1.47-.24,2.4,2.4,0,0,1,1.46.4,1.82,1.82,0,0,1,.7.85,5.52,5.52,0,0,1,.1,1.34v2.52a2.66,2.66,0,0,0,0,.56.33.33,0,0,0,.1.17.25.25,0,0,0,.16.06q.18,0,.37-.26l.21.17a2.55,2.55,0,0,1-.72.75,1.56,1.56,0,0,1-.84.23,1.33,1.33,0,0,1-.87-.26,1.19,1.19,0,0,1-.38-.79Zm0-.51V50a4.06,4.06,0,0,0-1.25,1.06,1.28,1.28,0,0,0-.27.76.79.79,0,0,0,.23.56.63.63,0,0,0,.49.19,1.33,1.33,0,0,0,.81-.39Z" transform="translate(-1.43 -2)"/><path class="cls-2" d="M142.06,47.14V48a3.75,3.75,0,0,1,1-.78,2,2,0,0,1,1-.25,1.56,1.56,0,0,1,1,.35,1.66,1.66,0,0,1,.56.87,6.74,6.74,0,0,1,.11,1.52v2.53a2,2,0,0,0,.13.94.82.82,0,0,0,.57.23v.25h-3.28v-.25a.69.69,0,0,0,.53-.31,2,2,0,0,0,.11-.86V49.33a4.73,4.73,0,0,0-.06-1,.59.59,0,0,0-.22-.32.51.51,0,0,0-.33-.12q-.6,0-1.11.85v3.48a2,2,0,0,0,.13.92.7.7,0,0,0,.51.24v.25h-3.28v-.25a.81.81,0,0,0,.58-.26,2,2,0,0,0,.12-.9V48.55a1.82,1.82,0,0,0-.14-.92.81.81,0,0,0-.56-.24v-.26Z" transform="translate(-1.43 -2)"/><path class="cls-1" d="M153.46,49.35V52a3,3,0,0,0,.09,1,.71.71,0,0,0,.33.31,2.22,2.22,0,0,0,.88.12v.26h-4.82v-.26a2.19,2.19,0,0,0,.88-.12.7.7,0,0,0,.33-.32,2.79,2.79,0,0,0,.1-1V45.87a2.79,2.79,0,0,0-.1-1,.67.67,0,0,0-.33-.32,2.23,2.23,0,0,0-.88-.12v-.26h4.37a9.55,9.55,0,0,1,2.5.24,2.51,2.51,0,0,1,1.29.87,2.32,2.32,0,0,1,.5,1.49,2.22,2.22,0,0,1-.75,1.72,3.1,3.1,0,0,1-1.34.65l2.26,3.19a4.79,4.79,0,0,0,.63.77,1.17,1.17,0,0,0,.66.24v.26h-3l-3-4.29Zm0-4.62v4.12h.4a4.5,4.5,0,0,0,1.44-.17,1.44,1.44,0,0,0,.75-.64,2.34,2.34,0,0,0,.28-1.21,1.83,1.83,0,0,0-2.12-2.1Z" transform="translate(-1.43 -2)"/><path class="cls-1" d="M165.51,50.16h-3.56a3.36,3.36,0,0,0,.69,2,1.45,1.45,0,0,0,1.15.58,1.33,1.33,0,0,0,.76-.23,3,3,0,0,0,.73-.84l.24.15a4,4,0,0,1-1.17,1.53,2.53,2.53,0,0,1-1.48.44,2.46,2.46,0,0,1-2.19-1.11,3.92,3.92,0,0,1-.6-2.22,3.68,3.68,0,0,1,.87-2.58,2.71,2.71,0,0,1,2.06-1,2.22,2.22,0,0,1,1.71.81,3.67,3.67,0,0,1,.78,2.4Zm-1.71-.47a6.23,6.23,0,0,0-.12-1.53,1.24,1.24,0,0,0-.37-.63.58.58,0,0,0-.39-.12.68.68,0,0,0-.59.35,3,3,0,0,0-.41,1.69v.24Z" transform="translate(-1.43 -2)"/><path class="cls-2" d="M170.42,47l.1,2.22h-.24a3.46,3.46,0,0,0-.88-1.35,1.45,1.45,0,0,0-.9-.36.67.67,0,0,0-.49.19.58.58,0,0,0-.2.44.57.57,0,0,0,.14.36,6.69,6.69,0,0,0,1.24,1,5,5,0,0,1,1.34,1.17,1.87,1.87,0,0,1,.33,1.08,2.28,2.28,0,0,1-.27,1.06,1.9,1.9,0,0,1-.76.8,2.18,2.18,0,0,1-1.09.28,3.78,3.78,0,0,1-1.24-.29,1.05,1.05,0,0,0-.28-.08q-.23,0-.38.35h-.23l-.11-2.33h.24a3,3,0,0,0,.85,1.37,1.66,1.66,0,0,0,1,.46.75.75,0,0,0,.54-.2.67.67,0,0,0,.22-.5.86.86,0,0,0-.21-.58,5.45,5.45,0,0,0-.93-.74,7.29,7.29,0,0,1-1.37-1.12,2,2,0,0,1-.46-1.26,2,2,0,0,1,.51-1.35,1.86,1.86,0,0,1,1.5-.61,2.18,2.18,0,0,1,1,.26.68.68,0,0,0,.31.1.37.37,0,0,0,.2,0,1.44,1.44,0,0,0,.24-.3Z" transform="translate(-1.43 -2)"/><path class="cls-1" d="M177.21,50.16h-3.56a3.36,3.36,0,0,0,.69,2,1.45,1.45,0,0,0,1.15.58,1.33,1.33,0,0,0,.76-.23,3,3,0,0,0,.73-.84l.24.15A4,4,0,0,1,176,53.39a2.53,2.53,0,0,1-1.48.44,2.46,2.46,0,0,1-2.19-1.11,3.92,3.92,0,0,1-.6-2.22,3.68,3.68,0,0,1,.87-2.58,2.71,2.71,0,0,1,2.06-1,2.22,2.22,0,0,1,1.71.81,3.67,3.67,0,0,1,.78,2.4Zm-1.71-.47a6.23,6.23,0,0,0-.12-1.53,1.24,1.24,0,0,0-.37-.63.58.58,0,0,0-.39-.12.68.68,0,0,0-.59.35,3,3,0,0,0-.41,1.69v.24Z" transform="translate(-1.43 -2)"/><path class="cls-1" d="M181.47,52.68a3.42,3.42,0,0,1-2.13,1,1.26,1.26,0,0,1-.92-.36,1.24,1.24,0,0,1-.37-.92,1.78,1.78,0,0,1,.64-1.33,12,12,0,0,1,2.78-1.58v-.65a3,3,0,0,0-.08-.92.7.7,0,0,0-.3-.33.89.89,0,0,0-.5-.15,1.28,1.28,0,0,0-.74.2.35.35,0,0,0-.18.29.6.6,0,0,0,.19.36.89.89,0,0,1,.26.58.77.77,0,0,1-.26.58.92.92,0,0,1-.66.24,1.07,1.07,0,0,1-.74-.26.81.81,0,0,1-.29-.62,1.43,1.43,0,0,1,.4-1,2.49,2.49,0,0,1,1.1-.7,4.51,4.51,0,0,1,1.47-.24,2.4,2.4,0,0,1,1.46.4,1.82,1.82,0,0,1,.7.85,5.52,5.52,0,0,1,.1,1.34v2.52a2.66,2.66,0,0,0,0,.56.33.33,0,0,0,.1.17.25.25,0,0,0,.16.06q.18,0,.37-.26l.21.17a2.55,2.55,0,0,1-.72.75,1.56,1.56,0,0,1-.84.23,1.33,1.33,0,0,1-.87-.26,1.19,1.19,0,0,1-.38-.79Zm0-.51V50a4.05,4.05,0,0,0-1.25,1.06,1.28,1.28,0,0,0-.27.76.8.8,0,0,0,.23.56.63.63,0,0,0,.49.19,1.33,1.33,0,0,0,.81-.39Z" transform="translate(-1.43 -2)"/><path class="cls-2" d="M187.54,47.14v1.47a4.69,4.69,0,0,1,1.13-1.33,1.67,1.67,0,0,1,.94-.33.81.81,0,0,1,.62.24.91.91,0,0,1,.24.67,1,1,0,0,1-.23.72.69.69,0,0,1-.54.26.94.94,0,0,1-.64-.24l-.32-.26a.31.31,0,0,0-.16,0,.58.58,0,0,0-.38.15,1.44,1.44,0,0,0-.43.67,4.72,4.72,0,0,0-.22,1.49V52.5a1.59,1.59,0,0,0,0,.51.57.57,0,0,0,.24.28,1.52,1.52,0,0,0,.56.1v.25h-3.51v-.25a.76.76,0,0,0,.57-.23,2.14,2.14,0,0,0,.15-1V48.52a2.7,2.7,0,0,0-.06-.71.56.56,0,0,0-.2-.28,1.08,1.08,0,0,0-.47-.12v-.26Z" transform="translate(-1.43 -2)"/><path class="cls-2" d="M196,52l.22.17a3.25,3.25,0,0,1-1.15,1.28,2.73,2.73,0,0,1-1.45.42,2.52,2.52,0,0,1-2.08-1,3.67,3.67,0,0,1-.78-2.35,4,4,0,0,1,.71-2.33,2.72,2.72,0,0,1,2.35-1.22,2.37,2.37,0,0,1,1.6.51,1.47,1.47,0,0,1,.6,1.13.82.82,0,0,1-.87.87.92.92,0,0,1-.68-.27,1.59,1.59,0,0,1-.33-1,1.06,1.06,0,0,0-.2-.61.5.5,0,0,0-.37-.17.68.68,0,0,0-.57.35,3,3,0,0,0-.36,1.64,5.32,5.32,0,0,0,.29,1.76,2.69,2.69,0,0,0,.8,1.24,1.42,1.42,0,0,0,.9.3,1.37,1.37,0,0,0,.65-.16A3,3,0,0,0,196,52Z" transform="translate(-1.43 -2)"/><path class="cls-2" d="M199.27,44.22V48a3.89,3.89,0,0,1,1-.79,2,2,0,0,1,.92-.24,1.61,1.61,0,0,1,1,.35,1.63,1.63,0,0,1,.58.82,5.91,5.91,0,0,1,.15,1.58v2.53a1.89,1.89,0,0,0,.14.93.81.81,0,0,0,.56.23v.25h-3.29v-.25a.75.75,0,0,0,.52-.28,1.89,1.89,0,0,0,.12-.88v-2.9a4.67,4.67,0,0,0-.06-1,.59.59,0,0,0-.22-.32.52.52,0,0,0-.33-.12.9.9,0,0,0-.54.19,2.41,2.41,0,0,0-.57.67v3.48a2.14,2.14,0,0,0,.1.87.68.68,0,0,0,.54.29v.25h-3.29v-.25a.81.81,0,0,0,.58-.26,1.92,1.92,0,0,0,.12-.9v-6.6a1.82,1.82,0,0,0-.14-.92.81.81,0,0,0-.56-.24v-.26Z" transform="translate(-1.43 -2)"/><path class="cls-1" d="M216.39,44v3.26h-.27a3.48,3.48,0,0,0-1.14-2,2.91,2.91,0,0,0-1.89-.68,2.79,2.79,0,0,0-1.62.51,3,3,0,0,0-1.08,1.33A6,6,0,0,0,210,48.8a7.83,7.83,0,0,0,.32,2.31,3.08,3.08,0,0,0,1,1.57,2.79,2.79,0,0,0,1.76.53,3.42,3.42,0,0,0,1.62-.39,5.61,5.61,0,0,0,1.56-1.34v.81a5.18,5.18,0,0,1-1.65,1.2,5,5,0,0,1-2,.37,5.77,5.77,0,0,1-2.68-.6,4.29,4.29,0,0,1-1.81-1.74,4.86,4.86,0,0,1-.63-2.41,5.13,5.13,0,0,1,2.6-4.43,5.17,5.17,0,0,1,2.55-.67,5.78,5.78,0,0,1,2.1.43,3.22,3.22,0,0,0,.81.25.52.52,0,0,0,.38-.16.89.89,0,0,0,.22-.52Z" transform="translate(-1.43 -2)"/><path class="cls-1" d="M220,46.95a3,3,0,0,1,1.58.44,2.78,2.78,0,0,1,1.1,1.24,4.07,4.07,0,0,1,.38,1.76,3.73,3.73,0,0,1-.7,2.31A2.77,2.77,0,0,1,220,53.83a2.68,2.68,0,0,1-2.26-1,3.79,3.79,0,0,1-.79-2.38,3.84,3.84,0,0,1,.81-2.43,2.67,2.67,0,0,1,2.22-1Zm0,.49a.81.81,0,0,0-.61.27,1.89,1.89,0,0,0-.33,1.06Q219,49.55,219,51a9.31,9.31,0,0,0,.1,1.39,1.34,1.34,0,0,0,.33.75.77.77,0,0,0,.57.26.79.79,0,0,0,.52-.17,1.17,1.17,0,0,0,.36-.66,16.08,16.08,0,0,0,.14-2.67,6.55,6.55,0,0,0-.13-1.62,1.24,1.24,0,0,0-.39-.65.73.73,0,0,0-.47-.15Z" transform="translate(-1.43 -2)"/><path class="cls-2" d="M229.75,47.14v5.08a1.89,1.89,0,0,0,.14.93.81.81,0,0,0,.56.23v.25H227.8v-.87a3.4,3.4,0,0,1-.93.81,2.17,2.17,0,0,1-1,.25,1.56,1.56,0,0,1-1-.33,1.67,1.67,0,0,1-.57-.79,5.81,5.81,0,0,1-.15-1.58V48.55a1.82,1.82,0,0,0-.14-.92.81.81,0,0,0-.56-.24v-.26h2.65v4.44a3.88,3.88,0,0,0,.06.9.62.62,0,0,0,.21.31.56.56,0,0,0,.33.1.8.8,0,0,0,.45-.13,2.87,2.87,0,0,0,.67-.73V48.55a1.83,1.83,0,0,0-.14-.92.81.81,0,0,0-.56-.24v-.26Z" transform="translate(-1.43 -2)"/><path class="cls-2" d="M233.75,47.14V48a3.75,3.75,0,0,1,1-.78,2,2,0,0,1,1-.25,1.56,1.56,0,0,1,1,.35,1.66,1.66,0,0,1,.56.87,6.75,6.75,0,0,1,.11,1.52v2.53a2,2,0,0,0,.13.94.82.82,0,0,0,.57.23v.25h-3.28v-.25a.69.69,0,0,0,.53-.31,2,2,0,0,0,.11-.86V49.33a4.73,4.73,0,0,0-.06-1,.59.59,0,0,0-.22-.32.51.51,0,0,0-.33-.12q-.6,0-1.11.85v3.48a2,2,0,0,0,.13.92.7.7,0,0,0,.51.24v.25h-3.28v-.25a.81.81,0,0,0,.58-.26,2,2,0,0,0,.12-.9V48.55a1.82,1.82,0,0,0-.14-.92.81.81,0,0,0-.56-.24v-.26Z" transform="translate(-1.43 -2)"/><path class="cls-2" d="M243.74,52l.22.17a3.25,3.25,0,0,1-1.15,1.28,2.73,2.73,0,0,1-1.45.42,2.52,2.52,0,0,1-2.08-1,3.67,3.67,0,0,1-.78-2.35,4,4,0,0,1,.71-2.33,2.72,2.72,0,0,1,2.35-1.22,2.37,2.37,0,0,1,1.6.51,1.47,1.47,0,0,1,.6,1.13.82.82,0,0,1-.87.87.92.92,0,0,1-.68-.27,1.59,1.59,0,0,1-.33-1,1.06,1.06,0,0,0-.2-.61.5.5,0,0,0-.37-.17.68.68,0,0,0-.57.35,3,3,0,0,0-.36,1.64,5.32,5.32,0,0,0,.29,1.76,2.69,2.69,0,0,0,.8,1.24,1.42,1.42,0,0,0,.9.3,1.37,1.37,0,0,0,.65-.16,3,3,0,0,0,.72-.6Z" transform="translate(-1.43 -2)"/><path class="cls-1" d="M246,44a1.08,1.08,0,1,1-.76.32A1,1,0,0,1,246,44Zm1,3.15v5.15a1.57,1.57,0,0,0,.16.88.88.88,0,0,0,.62.22v.25h-3.51v-.25a.85.85,0,0,0,.64-.25,1.55,1.55,0,0,0,.14-.85V48.5a1.53,1.53,0,0,0-.16-.87.85.85,0,0,0-.62-.22v-.26Z" transform="translate(-1.43 -2)"/><path class="cls-2" d="M251.32,44.22v8.07a1.57,1.57,0,0,0,.16.88.88.88,0,0,0,.62.22v.25h-3.51v-.25a.85.85,0,0,0,.64-.25,1.55,1.55,0,0,0,.14-.85V45.57a1.51,1.51,0,0,0-.16-.87.85.85,0,0,0-.62-.22v-.26Z" transform="translate(-1.43 -2)"/></svg>